G04 DipTrace Beta 2.3.5.2*
%INMicroOSD.GTL*%
%MOIN*%
%ADD13C,0.055*%
%ADD14C,0.012*%
%ADD16C,0.006*%
%ADD18C,0.01*%
%ADD19C,0.007*%
%ADD23R,0.0197X0.0138*%
%ADD24R,0.0138X0.0197*%
%ADD25R,0.0197X0.0315*%
%ADD27R,0.03X0.032*%
%ADD28R,0.063X0.063*%
%ADD34R,0.022X0.05*%
%ADD35R,0.05X0.022*%
%ADD36C,0.063*%
%ADD37C,0.018*%
%FSLAX44Y44*%
G04*
G70*
G90*
G75*
G01*
%LNTop*%
%LPD*%
X500Y500D2*
D13*
X1500D1*
D14*
X1950Y950D1*
Y954D1*
X2376Y4710D2*
Y4644D1*
X2640Y4380D1*
X500Y1500D2*
D13*
X1500D1*
X1950Y1190D2*
D14*
X1640Y1500D1*
X1500D1*
X4510Y1020D2*
D16*
Y960D1*
X4670Y800D1*
Y726D1*
X4686Y710D1*
X4510Y1020D2*
Y1070D1*
X4660Y1220D1*
Y1465D1*
X4675Y1480D1*
X5310Y1290D2*
X5100D1*
X4970Y1420D1*
Y1460D1*
X4990Y1480D1*
X3730Y4860D2*
D14*
X3760Y4890D1*
Y5120D1*
X3860Y5220D1*
X4070D1*
X4220D1*
X4340Y5100D1*
Y5010D1*
X4360D1*
Y4860D1*
X4170Y960D2*
D18*
Y1050D1*
X4045Y1175D1*
Y1480D1*
X4134Y5400D2*
D14*
X4070Y5336D1*
Y5220D1*
X500Y3500D2*
D13*
X1500D1*
X3900Y5270D2*
D14*
X3860Y5220D1*
X4186Y620D2*
D16*
X4360D1*
X4450Y710D1*
X4170Y960D2*
Y636D1*
X4186Y620D1*
X4450Y710D2*
X4420D1*
X4345Y785D1*
X4170Y960D1*
X4300Y740D2*
X4345Y785D1*
X2980Y5250D2*
Y5552D1*
X2988Y5560D1*
X3540Y640D2*
Y630D1*
X3620D1*
X3790Y460D1*
Y360D1*
X3800Y350D1*
Y290D1*
X3456Y1040D2*
X3590D1*
X5530Y390D2*
X5360D1*
X5060Y690D1*
X2198Y2068D2*
Y2050D1*
X2360D1*
X2480Y2170D1*
X2740D1*
X3030Y1880D1*
X4340D1*
Y1890D1*
X2198Y2383D2*
X2370D1*
Y2320D1*
X2400Y2350D1*
Y2380D1*
X2710D1*
X3090Y2000D1*
X3950D1*
X4290Y2340D1*
X4340D1*
X4330Y2350D1*
X2266Y5020D2*
D14*
X2296Y4990D1*
X2530D1*
X3460Y5560D2*
D16*
X3430Y5530D1*
Y5370D1*
X3100Y5040D1*
Y4860D1*
X2515Y5560D2*
X2590Y5485D1*
Y5310D1*
X2785Y5115D1*
Y4860D1*
X4568Y362D2*
D14*
X4902D1*
X4930Y390D1*
X3730Y1480D2*
D16*
X3760Y1450D1*
Y1140D1*
X3934Y966D1*
Y960D1*
X4746Y1020D2*
X4990D1*
X5230Y780D1*
X5510D1*
X5540Y750D1*
X5546Y1290D2*
X5660D1*
X5750Y1200D1*
X2860Y810D2*
D14*
X2850Y820D1*
X2710D1*
X2309Y810D2*
Y410D1*
Y810D2*
X2270Y849D1*
Y1610D1*
X2200Y1680D1*
X2860Y410D2*
D16*
X2850Y400D1*
X2630D1*
X5060Y2010D2*
Y2190D1*
X5260Y2390D1*
X5570D1*
X5578Y2383D1*
X3540Y404D2*
X3534Y410D1*
X3230D1*
Y270D1*
X5850Y3360D2*
Y3327D1*
X5578D1*
X5860Y3640D2*
X5578D1*
Y3642D1*
X2560Y1180D2*
X2785Y1405D1*
Y1480D1*
X2198Y3957D2*
X2487D1*
X2620Y4090D1*
X4000D1*
X4280Y3810D1*
Y3070D1*
X4260D1*
X5280Y3950D2*
X5287Y3957D1*
X5578D1*
X3415Y4860D2*
D14*
X3420Y4855D1*
Y4560D1*
X3540Y4440D1*
X4045D1*
Y4860D1*
X4332Y362D2*
X4028D1*
X3950Y440D1*
Y620D1*
X5520Y4860D2*
D16*
Y4850D1*
X5620D1*
X4370Y5400D2*
D14*
X4410D1*
X4570Y5240D1*
X5130D1*
X5310Y5060D1*
Y4860D1*
X5520D1*
X5040Y4420D2*
X5130D1*
X5310Y4600D1*
Y4860D1*
X3950Y620D2*
X3890D1*
X3680Y830D1*
X3220D1*
Y1040D1*
Y830D2*
Y636D1*
X3230Y646D1*
X3220Y1040D2*
X3090Y1170D1*
Y1470D1*
X3100Y1480D1*
X4045Y4440D2*
X5040D1*
Y4420D1*
X4070Y280D2*
D16*
X4028D1*
Y362D1*
X2030Y5020D2*
D14*
Y4820D1*
X2140Y4710D1*
X1980Y4560D2*
X1990D1*
X2140Y4710D1*
X1964Y1680D2*
Y1736D1*
X1520Y2180D1*
Y2480D1*
X1500Y2500D1*
X5520Y4624D2*
D16*
X5578Y4566D1*
Y4272D1*
X5585Y4280D1*
X5240D1*
X5060Y4100D1*
Y3510D1*
X4210Y2660D1*
D37*
X2640Y4380D3*
X3800Y290D3*
X3590Y1040D3*
X4330Y2350D3*
X2530Y4990D3*
X2650Y2890D3*
X5540Y750D3*
X5750Y1200D3*
X2710Y820D3*
X2640Y3700D3*
X2630Y400D3*
X1760Y3010D3*
X5060Y2010D3*
X3230Y270D3*
X2660Y1990D3*
X5850Y3360D3*
X5860Y3640D3*
X4320Y2120D3*
X5040Y4420D3*
D3*
D3*
D3*
X1980Y4560D3*
X2980Y5250D3*
X2630Y2570D3*
X2560Y1180D3*
X4340Y1890D3*
X4260Y3070D3*
X3420Y5070D3*
X5280Y3950D3*
X4070Y280D3*
X2480Y1560D3*
X4210Y2660D3*
X5810Y4700D3*
X3900Y5270D3*
X5060Y690D3*
X5240Y1030D3*
X4300Y740D3*
X3290Y4380D3*
X914Y5801D2*
D16*
X1220D1*
X1780D2*
X2279D1*
X3696D2*
X5904D1*
X914Y5743D2*
X1167D1*
X1833D2*
X2279D1*
X3696D2*
X5904D1*
X914Y5684D2*
X1130D1*
X1869D2*
X2279D1*
X3696D2*
X5904D1*
X914Y5625D2*
X1107D1*
X1893D2*
X2279D1*
X3696D2*
X5904D1*
X914Y5567D2*
X1092D1*
X1907D2*
X2279D1*
X3696D2*
X3966D1*
X4537D2*
X5904D1*
X914Y5508D2*
X1087D1*
X1913D2*
X2279D1*
X3696D2*
X3966D1*
X4537D2*
X5904D1*
X914Y5449D2*
X1090D1*
X1910D2*
X2279D1*
X3696D2*
X3966D1*
X4582D2*
X5904D1*
X914Y5390D2*
X1101D1*
X1898D2*
X2279D1*
X3696D2*
X3966D1*
X5160D2*
X5904D1*
X914Y5332D2*
X1123D1*
X1876D2*
X2279D1*
X3696D2*
X3966D1*
X5260D2*
X5904D1*
X914Y5273D2*
X1156D1*
X1845D2*
X2279D1*
X3696D2*
X3966D1*
X5318D2*
X5904D1*
X914Y5214D2*
X1204D1*
X1797D2*
X2280D1*
X3695D2*
X3966D1*
X5377D2*
X5904D1*
X914Y5156D2*
X1277D1*
X1724D2*
X1863D1*
X5434D2*
X5904D1*
X914Y5097D2*
X1435D1*
X1565D2*
X1863D1*
X5463D2*
X5904D1*
X196Y5038D2*
X1863D1*
X5468D2*
X5904D1*
X196Y4980D2*
X1863D1*
X5716D2*
X5904D1*
X196Y4921D2*
X1863D1*
X5726D2*
X5904D1*
X196Y4862D2*
X308D1*
X691D2*
X1309D1*
X1692D2*
X1863D1*
X5747D2*
X5904D1*
X196Y4804D2*
X223D1*
X778D2*
X1222D1*
X1777D2*
X1873D1*
X2543D2*
X2577D1*
X5739D2*
X5904D1*
X831Y4745D2*
X1169D1*
X1831D2*
X1892D1*
X2543D2*
X2577D1*
X5716D2*
X5904D1*
X868Y4686D2*
X1132D1*
X2555D2*
X2577D1*
X5716D2*
X5904D1*
X893Y4628D2*
X1107D1*
X5716D2*
X5904D1*
X907Y4569D2*
X1093D1*
X5716D2*
X5904D1*
X913Y4510D2*
X1087D1*
X2161D2*
X2288D1*
X2774D2*
X3270D1*
X5716D2*
X5904D1*
X910Y4451D2*
X1090D1*
X2814D2*
X3307D1*
X899Y4393D2*
X1101D1*
X2828D2*
X3365D1*
X878Y4334D2*
X1122D1*
X2822D2*
X3424D1*
X846Y4275D2*
X1154D1*
X2795D2*
X4923D1*
X798Y4217D2*
X1202D1*
X1799D2*
X1849D1*
X2727D2*
X4998D1*
X196Y4158D2*
X273D1*
X727D2*
X1273D1*
X1727D2*
X1849D1*
X4111D2*
X4946D1*
X196Y4099D2*
X421D1*
X579D2*
X1421D1*
X1579D2*
X1849D1*
X4170D2*
X4932D1*
X196Y4041D2*
X1849D1*
X4229D2*
X4932D1*
X196Y3982D2*
X1849D1*
X4287D2*
X4932D1*
X196Y3923D2*
X1849D1*
X2632D2*
X2901D1*
X4346D2*
X4932D1*
X196Y3865D2*
X313D1*
X688D2*
X1312D1*
X1687D2*
X1849D1*
X2724D2*
X2901D1*
X3998D2*
X4046D1*
X4396D2*
X4932D1*
X196Y3806D2*
X225D1*
X775D2*
X1225D1*
X1775D2*
X1849D1*
X2794D2*
X2901D1*
X3998D2*
X4105D1*
X4409D2*
X4932D1*
X829Y3747D2*
X1171D1*
X1830D2*
X1849D1*
X2822D2*
X2901D1*
X3998D2*
X4152D1*
X4409D2*
X4932D1*
X5189D2*
X5229D1*
X867Y3689D2*
X1133D1*
X2828D2*
X2901D1*
X3998D2*
X4152D1*
X4409D2*
X4932D1*
X5189D2*
X5229D1*
X892Y3630D2*
X1108D1*
X2814D2*
X2901D1*
X3998D2*
X4152D1*
X4409D2*
X4932D1*
X5189D2*
X5229D1*
X907Y3571D2*
X1093D1*
X2775D2*
X2901D1*
X3998D2*
X4152D1*
X4409D2*
X4932D1*
X5189D2*
X5229D1*
X913Y3512D2*
X1087D1*
X2546D2*
X2901D1*
X3998D2*
X4152D1*
X4409D2*
X4883D1*
X5189D2*
X5229D1*
X911Y3454D2*
X1089D1*
X2546D2*
X2901D1*
X3998D2*
X4152D1*
X4409D2*
X4825D1*
X5175D2*
X5229D1*
X900Y3395D2*
X1100D1*
X2546D2*
X2901D1*
X3998D2*
X4152D1*
X4409D2*
X4766D1*
X5124D2*
X5229D1*
X879Y3336D2*
X1121D1*
X2546D2*
X2901D1*
X3998D2*
X4152D1*
X4409D2*
X4708D1*
X5065D2*
X5229D1*
X847Y3278D2*
X1153D1*
X2546D2*
X2901D1*
X3998D2*
X4152D1*
X4409D2*
X4649D1*
X5007D2*
X5229D1*
X801Y3219D2*
X1199D1*
X1801D2*
X1849D1*
X2546D2*
X2901D1*
X3998D2*
X4149D1*
X4409D2*
X4590D1*
X4948D2*
X5229D1*
X196Y3160D2*
X269D1*
X731D2*
X1269D1*
X2546D2*
X2901D1*
X3998D2*
X4096D1*
X4425D2*
X4532D1*
X4890D2*
X5229D1*
X196Y3102D2*
X409D1*
X591D2*
X1409D1*
X2546D2*
X2901D1*
X3998D2*
X4074D1*
X4445D2*
X4473D1*
X4831D2*
X5229D1*
X196Y3043D2*
X1575D1*
X2755D2*
X2901D1*
X3998D2*
X4074D1*
X4771D2*
X5229D1*
X196Y2984D2*
X1574D1*
X2812D2*
X2901D1*
X3998D2*
X4093D1*
X4713D2*
X5229D1*
X196Y2926D2*
X1593D1*
X2835D2*
X2901D1*
X3998D2*
X4143D1*
X4654D2*
X5229D1*
X196Y2867D2*
X318D1*
X683D2*
X1317D1*
X2836D2*
X2901D1*
X3998D2*
X4238D1*
X4596D2*
X5229D1*
X196Y2808D2*
X228D1*
X772D2*
X1228D1*
X1772D2*
X1849D1*
X2819D2*
X2901D1*
X3998D2*
X4098D1*
X4537D2*
X5229D1*
X827Y2750D2*
X1173D1*
X1828D2*
X1850D1*
X2772D2*
X2901D1*
X3998D2*
X4045D1*
X4478D2*
X5229D1*
X866Y2691D2*
X1134D1*
X2773D2*
X2901D1*
X3998D2*
X4024D1*
X4420D2*
X5229D1*
X891Y2632D2*
X1109D1*
X2807D2*
X2901D1*
X3998D2*
X4023D1*
X4396D2*
X5229D1*
X906Y2573D2*
X1094D1*
X2819D2*
X2901D1*
X3998D2*
X4043D1*
X4377D2*
X5229D1*
X913Y2515D2*
X1087D1*
X2809D2*
X2901D1*
X3998D2*
X4094D1*
X4414D2*
X5229D1*
X911Y2456D2*
X1089D1*
X2813D2*
X2901D1*
X3998D2*
X4175D1*
X4485D2*
X5148D1*
X901Y2397D2*
X1099D1*
X2871D2*
X2901D1*
X3998D2*
X4148D1*
X4512D2*
X5089D1*
X880Y2339D2*
X1120D1*
X3998D2*
X4110D1*
X4518D2*
X5029D1*
X849Y2280D2*
X1151D1*
X3998D2*
X4051D1*
X4504D2*
X4971D1*
X803Y2221D2*
X1197D1*
X1803D2*
X1849D1*
X4477D2*
X4936D1*
X196Y2163D2*
X266D1*
X735D2*
X1265D1*
X1758D2*
X1849D1*
X4503D2*
X4932D1*
X196Y2104D2*
X399D1*
X601D2*
X1382D1*
X1817D2*
X1850D1*
X4508D2*
X4898D1*
X196Y2045D2*
X1433D1*
X4492D2*
X4875D1*
X196Y1987D2*
X1492D1*
X4501D2*
X4873D1*
X196Y1928D2*
X1550D1*
X4524D2*
X4892D1*
X196Y1869D2*
X322D1*
X677D2*
X1323D1*
X2803D2*
X2862D1*
X4527D2*
X4939D1*
X5182D2*
X5229D1*
X196Y1811D2*
X230D1*
X2367D2*
X2577D1*
X5198D2*
X5904D1*
X2367Y1752D2*
X2577D1*
X5198D2*
X5904D1*
X5198Y1693D2*
X5904D1*
X5198Y1634D2*
X5904D1*
X5198Y1576D2*
X5904D1*
X5198Y1517D2*
X5904D1*
X1911Y1458D2*
X2112D1*
X5714D2*
X5904D1*
X1962Y1400D2*
X2112D1*
X5720D2*
X5904D1*
X2429Y1341D2*
X2468D1*
X5871D2*
X5905D1*
X196Y1165D2*
X262D1*
X196Y1106D2*
X390D1*
X610D2*
X1390D1*
X1610D2*
X1753D1*
X2732D2*
X2945D1*
X5083D2*
X5143D1*
X196Y1048D2*
X1753D1*
X5141D2*
X5644D1*
X5856D2*
X5904D1*
X196Y989D2*
X1753D1*
X2506D2*
X2635D1*
X5200D2*
X5904D1*
X196Y930D2*
X1709D1*
X2506D2*
X2559D1*
X5259D2*
X5507D1*
X5573D2*
X5904D1*
X196Y872D2*
X327D1*
X673D2*
X1327D1*
X2506D2*
X2529D1*
X4913D2*
X4959D1*
X5682D2*
X5904D1*
X196Y813D2*
X233D1*
X4853D2*
X4920D1*
X5717D2*
X5904D1*
X1976Y754D2*
X2112D1*
X2506D2*
X2534D1*
X4853D2*
X4883D1*
X5729D2*
X5904D1*
X1917Y695D2*
X2112D1*
X2506D2*
X2571D1*
X4853D2*
X4872D1*
X5720D2*
X5904D1*
X1890Y637D2*
X2112D1*
X2506D2*
X2663D1*
X5778D2*
X5904D1*
X1906Y578D2*
X2112D1*
X2506D2*
X2585D1*
X5778D2*
X5904D1*
X1913Y519D2*
X2112D1*
X5778D2*
X5904D1*
X1911Y461D2*
X2112D1*
X5778D2*
X5904D1*
X1901Y402D2*
X2112D1*
X5778D2*
X5904D1*
X1882Y343D2*
X2112D1*
X5178D2*
X5227D1*
X5778D2*
X5904D1*
X1852Y285D2*
X2112D1*
X5178D2*
X5282D1*
X5778D2*
X5904D1*
X1807Y226D2*
X2112D1*
X2506D2*
X2569D1*
X3413D2*
X3623D1*
X5178D2*
X5282D1*
X5778D2*
X5904D1*
X3625Y242D2*
X3409D1*
X3403Y211D1*
X3393Y190D1*
X3648D1*
X3641Y201D1*
X3628Y228D1*
X3625Y242D1*
X4331Y1138D2*
Y901D1*
X4349D1*
Y1138D1*
X1899Y5211D2*
X2191Y5210D1*
X2255Y5211D1*
X2286D1*
X2285Y5345D1*
Y5860D1*
X1690D1*
X1727Y5838D1*
X1774Y5802D1*
X1815Y5758D1*
X1850Y5709D1*
X1877Y5655D1*
X1895Y5599D1*
X1905Y5539D1*
X1907Y5500D1*
X1903Y5440D1*
X1890Y5382D1*
X1868Y5326D1*
X1839Y5274D1*
X1802Y5226D1*
X1758Y5185D1*
X1709Y5151D1*
X1656Y5124D1*
X1599Y5105D1*
X1540Y5095D1*
X1480Y5093D1*
X1420Y5100D1*
X1363Y5116D1*
X1308Y5141D1*
X1257Y5173D1*
X1212Y5212D1*
X1173Y5257D1*
X1141Y5308D1*
X1116Y5363D1*
X1100Y5421D1*
X1093Y5480D1*
X1095Y5540D1*
X1105Y5599D1*
X1124Y5656D1*
X1151Y5710D1*
X1185Y5759D1*
X1227Y5802D1*
X1274Y5839D1*
X1310Y5860D1*
X907D1*
Y5697D1*
Y5093D1*
X190D1*
Y4764D1*
X227Y4802D1*
X274Y4839D1*
X326Y4868D1*
X382Y4890D1*
X441Y4903D1*
X500Y4907D1*
X560Y4903D1*
X619Y4890D1*
X675Y4868D1*
X727Y4838D1*
X774Y4802D1*
X815Y4758D1*
X850Y4709D1*
X877Y4655D1*
X895Y4599D1*
X905Y4539D1*
X907Y4500D1*
X903Y4440D1*
X890Y4382D1*
X868Y4326D1*
X839Y4274D1*
X802Y4226D1*
X758Y4185D1*
X709Y4151D1*
X656Y4124D1*
X599Y4105D1*
X540Y4095D1*
X480Y4093D1*
X420Y4100D1*
X363Y4116D1*
X308Y4141D1*
X257Y4173D1*
X212Y4212D1*
X190Y4236D1*
Y3765D1*
X227Y3802D1*
X264Y3832D1*
X305Y3858D1*
X348Y3878D1*
X394Y3893D1*
X441Y3903D1*
X488Y3907D1*
X536Y3906D1*
X584Y3899D1*
X630Y3886D1*
X675Y3868D1*
X717Y3845D1*
X756Y3817D1*
X791Y3785D1*
X823Y3749D1*
X850Y3709D1*
X872Y3666D1*
X889Y3622D1*
X900Y3575D1*
X906Y3528D1*
X907Y3476D1*
X901Y3428D1*
X890Y3382D1*
X873Y3337D1*
X851Y3294D1*
X825Y3254D1*
X794Y3218D1*
X758Y3185D1*
X720Y3157D1*
X678Y3133D1*
X633Y3115D1*
X587Y3102D1*
X540Y3095D1*
X492Y3093D1*
X444Y3096D1*
X397Y3106D1*
X351Y3121D1*
X308Y3141D1*
X267Y3166D1*
X229Y3196D1*
X195Y3230D1*
X190Y3236D1*
Y2763D1*
X227Y2802D1*
X274Y2839D1*
X326Y2868D1*
X382Y2890D1*
X441Y2903D1*
X500Y2907D1*
X560Y2903D1*
X619Y2890D1*
X675Y2868D1*
X727Y2838D1*
X774Y2802D1*
X815Y2758D1*
X850Y2709D1*
X877Y2655D1*
X895Y2599D1*
X905Y2539D1*
X907Y2500D1*
X903Y2440D1*
X890Y2382D1*
X868Y2326D1*
X839Y2274D1*
X802Y2226D1*
X758Y2185D1*
X709Y2151D1*
X656Y2124D1*
X599Y2105D1*
X540Y2095D1*
X480Y2093D1*
X420Y2100D1*
X363Y2116D1*
X308Y2141D1*
X257Y2173D1*
X212Y2212D1*
X190Y2236D1*
Y1764D1*
X227Y1802D1*
X274Y1839D1*
X326Y1868D1*
X382Y1890D1*
X441Y1903D1*
X500Y1907D1*
X560Y1903D1*
X619Y1890D1*
X675Y1868D1*
X1324Y1867D1*
X1382Y1890D1*
X1441Y1903D1*
X1500Y1907D1*
X1560Y1903D1*
X1587Y1898D1*
X1412Y2072D1*
X1392Y2097D1*
X1363Y2116D1*
X1308Y2141D1*
X1257Y2173D1*
X1212Y2212D1*
X1173Y2257D1*
X1141Y2308D1*
X1116Y2363D1*
X1100Y2421D1*
X1093Y2480D1*
X1095Y2540D1*
X1105Y2599D1*
X1124Y2656D1*
X1151Y2710D1*
X1185Y2759D1*
X1227Y2802D1*
X1274Y2839D1*
X1326Y2868D1*
X1382Y2890D1*
X1441Y2903D1*
X1500Y2907D1*
X1560Y2903D1*
X1619Y2890D1*
X1625Y2888D1*
X1601Y2921D1*
X1588Y2948D1*
X1581Y2977D1*
X1578Y3007D1*
X1580Y3037D1*
X1586Y3066D1*
X1598Y3094D1*
X1605Y3106D1*
X1558Y3097D1*
X1510Y3093D1*
X1462Y3094D1*
X1415Y3102D1*
X1368Y3115D1*
X1324Y3133D1*
X1282Y3156D1*
X1243Y3184D1*
X1208Y3216D1*
X1176Y3253D1*
X1149Y3292D1*
X1128Y3335D1*
X1111Y3380D1*
X1099Y3427D1*
X1093Y3474D1*
Y3522D1*
X1099Y3570D1*
X1110Y3617D1*
X1126Y3662D1*
X1148Y3705D1*
X1174Y3745D1*
X1205Y3781D1*
X1240Y3814D1*
X1279Y3842D1*
X1321Y3866D1*
X1365Y3884D1*
X1411Y3898D1*
X1458Y3905D1*
X1506Y3907D1*
X1554Y3904D1*
X1601Y3895D1*
X1647Y3880D1*
X1691Y3860D1*
X1732Y3835D1*
X1769Y3806D1*
X1803Y3772D1*
X1833Y3734D1*
X1855Y3699D1*
X1856Y3845D1*
X1855Y3905D1*
X1856Y4160D1*
X1855Y4220D1*
X1854Y4299D1*
X1821Y4249D1*
X1781Y4205D1*
X1735Y4167D1*
X1683Y4136D1*
X1628Y4113D1*
X1570Y4099D1*
X1510Y4093D1*
X1450Y4096D1*
X1391Y4107D1*
X1335Y4128D1*
X1282Y4156D1*
X1234Y4192D1*
X1191Y4234D1*
X1156Y4282D1*
X1128Y4335D1*
X1107Y4392D1*
X1096Y4450D1*
X1093Y4510D1*
X1099Y4570D1*
X1113Y4628D1*
X1136Y4683D1*
X1167Y4735D1*
X1205Y4781D1*
X1250Y4821D1*
X1299Y4855D1*
X1354Y4880D1*
X1411Y4898D1*
X1470Y4906D1*
X1530D1*
X1590Y4897D1*
X1647Y4880D1*
X1701Y4854D1*
X1751Y4821D1*
X1795Y4781D1*
X1833Y4734D1*
X1857Y4695D1*
X1877Y4710D1*
X1909Y4728D1*
X1889Y4762D1*
X1880Y4790D1*
X1878Y4828D1*
X1869Y4829D1*
Y5211D1*
X1899D1*
X2004Y1351D2*
X2118D1*
Y1489D1*
X1907D1*
X1904Y1450D1*
X2004Y1351D1*
X1760Y1029D2*
X1759Y1165D1*
X1747Y1177D1*
X1709Y1151D1*
X1656Y1124D1*
X1599Y1105D1*
X1540Y1095D1*
X1480Y1093D1*
X1420Y1100D1*
X1363Y1116D1*
X1324Y1133D1*
X676D1*
X628Y1113D1*
X570Y1099D1*
X510Y1093D1*
X450Y1096D1*
X391Y1107D1*
X335Y1128D1*
X282Y1156D1*
X234Y1192D1*
X190Y1236D1*
Y765D1*
X227Y802D1*
X274Y839D1*
X326Y868D1*
X382Y890D1*
X441Y903D1*
X500Y907D1*
X560Y903D1*
X619Y890D1*
X675Y868D1*
X1324Y867D1*
X1382Y890D1*
X1441Y903D1*
X1500Y907D1*
X1560Y903D1*
X1619Y890D1*
X1660Y874D1*
X1759Y974D1*
X1760Y1115D1*
X2117Y792D2*
X2009D1*
X1874Y659D1*
X1887Y627D1*
X1901Y569D1*
X1907Y510D1*
X1906Y470D1*
X1897Y411D1*
X1880Y353D1*
X1854Y299D1*
X1821Y249D1*
X1781Y205D1*
X1763Y189D1*
X2118Y190D1*
Y660D1*
Y792D1*
X4239Y5591D2*
X4531D1*
Y5494D1*
X4634Y5392D1*
X5020D1*
X5130D1*
X5160Y5389D1*
X5188Y5381D1*
X5215Y5367D1*
X5238Y5348D1*
X5418Y5168D1*
X5437Y5145D1*
X5451Y5118D1*
X5460Y5090D1*
X5462Y5060D1*
Y5022D1*
X5711Y5021D1*
Y4932D1*
X5722Y4918D1*
X5735Y4891D1*
X5742Y4862D1*
X5741Y4832D1*
X5733Y4803D1*
X5719Y4777D1*
X5710Y4769D1*
X5711Y4485D1*
Y4474D1*
X5910Y4475D1*
Y5860D1*
X3691D1*
X3690Y5565D1*
Y5202D1*
X4248Y5201D1*
X4260Y5202D1*
X4392D1*
X4381Y5209D1*
X4209Y5210D1*
X4211Y5209D1*
X3972D1*
Y5591D1*
X4295D1*
X2696Y1060D2*
X2985D1*
X2963Y1085D1*
X2949Y1114D1*
X2928Y1138D1*
X2737D1*
X2721Y1094D1*
X2696Y1059D1*
X2669Y578D2*
Y642D1*
X2638Y652D1*
X2612Y666D1*
X2588Y684D1*
X2568Y706D1*
X2551Y731D1*
X2538Y758D1*
X2531Y787D1*
X2528Y817D1*
X2530Y847D1*
X2536Y876D1*
X2548Y904D1*
X2564Y929D1*
X2584Y952D1*
X2607Y970D1*
X2633Y985D1*
X2669Y997D1*
Y1034D1*
X2634Y1013D1*
X2606Y1004D1*
X2576Y998D1*
X2547D1*
X2517Y1003D1*
X2500Y1008D1*
Y560D1*
Y528D1*
X2527Y550D1*
X2553Y565D1*
X2581Y576D1*
X2610Y581D1*
X2640Y582D1*
X2669Y578D1*
Y640D1*
Y220D2*
X2646Y218D1*
X2617D1*
X2587Y223D1*
X2558Y232D1*
X2532Y246D1*
X2500Y273D1*
Y190D1*
X2669D1*
Y220D1*
X5688Y642D2*
X5772D1*
Y190D1*
X5910D1*
Y1113D1*
X5894Y1088D1*
X5874Y1066D1*
X5851Y1048D1*
X5824Y1033D1*
X5796Y1024D1*
X5766Y1018D1*
X5737D1*
X5707Y1023D1*
X5678Y1032D1*
X5652Y1046D1*
X5628Y1064D1*
X5608Y1086D1*
X5599Y1099D1*
X5385Y1100D1*
X5321Y1099D1*
X5149D1*
Y1138D1*
X5023D1*
X5058Y1122D1*
X5098Y1085D1*
X5281Y902D1*
X5441D1*
X5463Y915D1*
X5491Y926D1*
X5520Y931D1*
X5550Y932D1*
X5580Y928D1*
X5609Y919D1*
X5635Y905D1*
X5660Y888D1*
X5681Y866D1*
X5698Y842D1*
X5711Y815D1*
X5719Y786D1*
X5722Y750D1*
X5720Y720D1*
X5713Y691D1*
X5701Y664D1*
X5687Y642D1*
X5288Y189D2*
Y292D1*
X5273Y303D1*
X5172Y405D1*
Y190D1*
X5287D1*
X4848Y642D2*
X4884D1*
X4878Y687D1*
X4880Y717D1*
X4886Y746D1*
X4898Y774D1*
X4914Y799D1*
X4934Y822D1*
X4957Y840D1*
X4982Y855D1*
X4939Y898D1*
X4907D1*
X4908Y829D1*
X4847D1*
X4848Y691D1*
Y643D1*
X2538Y4808D2*
Y4697D1*
X2583Y4653D1*
Y4815D1*
X2538Y4808D1*
X2285Y4519D2*
X2215Y4520D1*
X2165Y4519D1*
X2156Y4510D1*
X2141Y4474D1*
X2331Y4475D1*
X2285Y4520D1*
X2211Y4519D1*
X2361Y1866D2*
Y1735D1*
X2379Y1716D1*
X2431Y1736D1*
X2460Y1741D1*
X2490Y1742D1*
X2520Y1738D1*
X2549Y1729D1*
X2582Y1710D1*
X2583Y1822D1*
X2588D1*
X2562Y1836D1*
X2538Y1854D1*
X2527Y1866D1*
X2361Y1865D1*
X5193Y1481D2*
X5471Y1480D1*
X5535Y1481D1*
X5708D1*
Y1403D1*
X5728Y1392D1*
X5760Y1382D1*
X5790Y1378D1*
X5819Y1369D1*
X5845Y1355D1*
X5870Y1338D1*
X5891Y1316D1*
X5911Y1286D1*
X5910Y1840D1*
Y1865D1*
X5235D1*
Y1960D1*
X5221Y1924D1*
X5204Y1898D1*
X5184Y1876D1*
X5161Y1858D1*
X5134Y1843D1*
X5106Y1834D1*
X5076Y1828D1*
X5047D1*
X5017Y1833D1*
X4988Y1842D1*
X4962Y1856D1*
X4938Y1874D1*
X4918Y1896D1*
X4901Y1921D1*
X4888Y1948D1*
X4881Y1977D1*
X4878Y2007D1*
X4880Y2037D1*
X4886Y2066D1*
X4898Y2094D1*
X4914Y2119D1*
X4937Y2145D1*
X4938Y2190D1*
X4941Y2220D1*
X4952Y2248D1*
X4973Y2277D1*
X5173Y2477D1*
X5197Y2495D1*
X5235Y2510D1*
X5236Y2585D1*
X5235Y2645D1*
X5236Y2900D1*
X5235Y2960D1*
X5236Y3215D1*
X5235Y3275D1*
X5236Y3530D1*
X5235Y3590D1*
Y3773D1*
X5208Y3782D1*
X5183Y3796D1*
X5182Y3510D1*
X5179Y3480D1*
X5168Y3452D1*
X5147Y3423D1*
X4391Y2668D1*
X4392Y2660D1*
X4390Y2630D1*
X4383Y2601D1*
X4371Y2574D1*
X4354Y2548D1*
X4340Y2532D1*
X4370Y2528D1*
X4399Y2519D1*
X4425Y2505D1*
X4450Y2488D1*
X4471Y2466D1*
X4488Y2442D1*
X4501Y2415D1*
X4509Y2386D1*
X4512Y2350D1*
X4510Y2320D1*
X4503Y2291D1*
X4491Y2264D1*
X4466Y2229D1*
X4478Y2212D1*
X4491Y2185D1*
X4499Y2156D1*
X4502Y2120D1*
X4500Y2090D1*
X4493Y2061D1*
X4481Y2034D1*
X4470Y2017D1*
X4481Y2006D1*
X4498Y1982D1*
X4511Y1955D1*
X4519Y1926D1*
X4522Y1890D1*
X4520Y1860D1*
X4509Y1822D1*
X4562D1*
X4877D1*
X5192D1*
Y1480D1*
X2810Y2540D2*
X2803Y2511D1*
X2786Y2477D1*
X2907Y2356D1*
X2908Y3969D1*
X2770Y3968D1*
X2670D1*
X2573Y3870D1*
X2620Y3881D1*
X2650Y3882D1*
X2680Y3878D1*
X2709Y3869D1*
X2735Y3855D1*
X2760Y3838D1*
X2781Y3816D1*
X2798Y3792D1*
X2811Y3765D1*
X2819Y3736D1*
X2822Y3700D1*
X2820Y3670D1*
X2813Y3641D1*
X2801Y3614D1*
X2784Y3588D1*
X2764Y3566D1*
X2741Y3548D1*
X2714Y3533D1*
X2686Y3524D1*
X2656Y3518D1*
X2627D1*
X2597Y3523D1*
X2568Y3532D1*
X2540Y3548D1*
X2539Y3440D1*
X2540Y3380D1*
X2539Y3125D1*
X2540Y3065D1*
Y3036D1*
X2573Y3055D1*
X2601Y3066D1*
X2630Y3071D1*
X2660Y3072D1*
X2690Y3068D1*
X2719Y3059D1*
X2745Y3045D1*
X2770Y3028D1*
X2791Y3006D1*
X2808Y2982D1*
X2821Y2955D1*
X2829Y2926D1*
X2832Y2890D1*
X2830Y2860D1*
X2823Y2831D1*
X2811Y2804D1*
X2794Y2778D1*
X2774Y2756D1*
X2751Y2738D1*
X2727Y2725D1*
X2750Y2708D1*
X2771Y2686D1*
X2788Y2662D1*
X2801Y2635D1*
X2809Y2606D1*
X2812Y2570D1*
X2810Y2540D1*
X2422Y1298D2*
X2434Y1312D1*
X2457Y1330D1*
X2483Y1345D1*
X2511Y1356D1*
X2540Y1361D1*
X2570Y1362D1*
X2583Y1378D1*
Y1410D1*
X2554Y1393D1*
X2526Y1384D1*
X2496Y1378D1*
X2467D1*
X2437Y1383D1*
X2422Y1388D1*
Y1300D1*
X4266Y2888D2*
X4247D1*
X4217Y2893D1*
X4188Y2902D1*
X4162Y2916D1*
X4138Y2934D1*
X4118Y2956D1*
X4101Y2981D1*
X4088Y3008D1*
X4081Y3037D1*
X4078Y3067D1*
X4080Y3097D1*
X4086Y3126D1*
X4098Y3154D1*
X4114Y3179D1*
X4134Y3202D1*
X4158Y3221D1*
Y3759D1*
X3993Y3924D1*
X3992Y2216D1*
X4149Y2372D1*
X4156Y2406D1*
X4168Y2434D1*
X4184Y2459D1*
X4201Y2478D1*
X4167Y2483D1*
X4138Y2492D1*
X4112Y2506D1*
X4088Y2524D1*
X4068Y2546D1*
X4051Y2571D1*
X4038Y2598D1*
X4031Y2627D1*
X4028Y2657D1*
X4030Y2687D1*
X4036Y2716D1*
X4048Y2744D1*
X4064Y2769D1*
X4084Y2792D1*
X4107Y2810D1*
X4133Y2825D1*
X4161Y2836D1*
X4190Y2841D1*
X4220Y2842D1*
X4265Y2888D1*
X4402Y3184D2*
X4418Y3162D1*
X4431Y3135D1*
X4439Y3106D1*
X4442Y3065D1*
X4938Y3561D1*
Y3870D1*
Y4100D1*
X4941Y4130D1*
X4952Y4158D1*
X4973Y4187D1*
X5026Y4239D1*
X4997Y4243D1*
X4968Y4252D1*
X4942Y4266D1*
X4915Y4288D1*
X3540D1*
X3510Y4291D1*
X3482Y4299D1*
X3455Y4313D1*
X3432Y4332D1*
X3312Y4452D1*
X3293Y4475D1*
X3273Y4518D1*
X2898Y4519D1*
X2838Y4518D1*
X2760D1*
X2781Y4496D1*
X2798Y4472D1*
X2811Y4445D1*
X2819Y4416D1*
X2822Y4380D1*
X2820Y4350D1*
X2813Y4321D1*
X2801Y4294D1*
X2784Y4268D1*
X2764Y4246D1*
X2741Y4228D1*
X2712Y4212D1*
X4000D1*
X4030Y4209D1*
X4058Y4198D1*
X4087Y4177D1*
X4367Y3897D1*
X4385Y3873D1*
X4397Y3846D1*
X4402Y3810D1*
Y3185D1*
X1855Y3165D2*
X1854Y3299D1*
X1828Y3259D1*
X1798Y3222D1*
X1767Y3192D1*
X1800Y3188D1*
X1829Y3179D1*
X1855Y3166D1*
Y3215D1*
X1856D1*
Y2810D2*
X1855Y2854D1*
X1834Y2843D1*
X1806Y2834D1*
X1776Y2828D1*
X1740Y2829D1*
X1774Y2802D1*
X1815Y2758D1*
X1850Y2709D1*
X1855Y2698D1*
Y2854D1*
X1856Y2180D2*
X1855Y2270D1*
X1854Y2299D1*
X1821Y2249D1*
X1781Y2205D1*
X1743Y2173D1*
X1855Y2060D1*
X1856Y2270D1*
X2732Y1822D2*
X2914D1*
X2825Y1912D1*
X2804Y1878D1*
X2784Y1856D1*
X2761Y1838D1*
X2732Y1822D1*
X3230Y5343D2*
Y5860D1*
X3218Y5859D1*
Y5331D1*
X3230Y5344D1*
X2757Y5316D2*
Y5860D1*
X2745Y5835D1*
Y5327D1*
X3915Y2138D2*
X3125D1*
X3141Y2122D1*
X3899D1*
X3914Y2138D1*
X4170Y960D2*
D19*
X4331D1*
X4134Y5591D2*
Y5209D1*
X3973Y5400D2*
X4134D1*
X4360Y5202D2*
Y4860D1*
X3730Y5202D2*
Y4860D1*
X500Y3907D2*
Y3093D1*
Y3500D2*
X907D1*
X1500Y3907D2*
Y3093D1*
X1093Y3500D2*
X1500D1*
X2757Y5560D2*
X3218D1*
D23*
X3540Y640D3*
Y404D3*
D24*
X3950Y620D3*
X4186D3*
X4170Y960D3*
X3934D3*
X2030Y5020D3*
X2266D3*
D23*
X1950Y1190D3*
Y954D3*
D24*
X4370Y5400D3*
X4134D3*
D25*
X2860Y810D3*
X2309D3*
X2860Y410D3*
X2309D3*
D27*
X5530Y390D3*
X4930D3*
D23*
X3230Y410D3*
Y646D3*
D24*
X2376Y4710D3*
X2140D3*
X2200Y1680D3*
X1964D3*
D23*
X5520Y4860D3*
Y4624D3*
D24*
X3220Y1040D3*
X3456D3*
X4332Y362D3*
X4568D3*
X4450Y710D3*
X4686D3*
X4510Y1020D3*
X4746D3*
X5310Y1290D3*
X5546D3*
D34*
X4990Y4860D3*
X4675D3*
X4360D3*
X4045D3*
X3730D3*
X3415D3*
X3100D3*
X2785D3*
D35*
X2198Y4272D3*
Y3957D3*
Y3642D3*
Y3327D3*
Y3013D3*
Y2698D3*
Y2383D3*
Y2068D3*
D34*
X2785Y1480D3*
X3100D3*
X3415D3*
X3730D3*
X4045D3*
X4360D3*
X4675D3*
X4990D3*
D35*
X5578Y2068D3*
Y2383D3*
Y2698D3*
Y3013D3*
Y3327D3*
Y3642D3*
Y3957D3*
Y4272D3*
D28*
X500Y5500D3*
D36*
X1500D3*
X500Y4500D3*
X1500D3*
X500Y3500D3*
X1500D3*
X500Y2500D3*
X1500D3*
X500Y1500D3*
X1500D3*
X500Y500D3*
X1500D3*
G36*
X3322Y5225D2*
X3598D1*
Y5895D1*
X3322D1*
Y5225D1*
G37*
G36*
X2850D2*
X3125D1*
Y5895D1*
X2850D1*
Y5225D1*
G37*
G36*
X2377D2*
X2653D1*
Y5895D1*
X2377D1*
Y5225D1*
G37*
G36*
X3000Y3960D2*
X3900D1*
Y2230D1*
X3000D1*
Y3960D1*
G37*
M02*
