G04 DipTrace Beta 2.3.5.2*
%INMicroOSD.GBL*%
%MOIN*%
%ADD13C,0.055*%
%ADD14C,0.012*%
%ADD15C,0.009*%
%ADD16C,0.006*%
%ADD17C,0.015*%
%ADD19C,0.007*%
%ADD23R,0.0197X0.0138*%
%ADD28R,0.063X0.063*%
%ADD29R,0.05X0.025*%
%ADD31R,0.0315X0.0118*%
%ADD32R,0.126X0.2756*%
%ADD33R,0.0276X0.0295*%
%ADD36C,0.063*%
%ADD37C,0.018*%
%ADD38C,0.035*%
%FSLAX44Y44*%
G04*
G70*
G90*
G75*
G01*
%LNBottom*%
%LPD*%
X1500Y500D2*
D15*
X1980Y980D1*
Y2150D1*
X2170Y2340D1*
X2258D1*
Y2330D1*
D14*
X3055D1*
X3439Y2713D1*
X2258Y3097D2*
X3055D1*
X3439Y2713D1*
X2640Y4380D2*
X2660D1*
X2920Y4120D1*
Y3232D1*
X3439Y2713D1*
X3440Y3550D2*
D16*
Y3030D1*
Y2490D1*
X2258Y3097D2*
X3373D1*
G02X3440Y3030I0J-67D01*
G01*
X4900Y5116D2*
D14*
X4666D1*
X3840Y4290D1*
Y3114D1*
X3439Y2713D1*
X500Y500D2*
D13*
X1500D1*
X2258Y3353D2*
D14*
X2133D1*
X1960Y3180D1*
Y2580D1*
X2252D1*
X2258Y2585D1*
X1500Y1500D2*
Y1890D1*
X1960Y2350D1*
Y2580D1*
X1500Y1500D2*
D17*
X1270D1*
X990Y1780D1*
Y4700D1*
X1270Y4980D1*
X1950D1*
X2740Y5770D1*
X5304D1*
X5610Y5464D1*
X500Y1500D2*
D13*
X1500D1*
X4620Y3609D2*
D16*
X4941D1*
X5000Y3550D1*
X3590Y1040D2*
Y1010D1*
X2990D1*
X2720Y1280D1*
Y1570D1*
X2472Y1818D1*
X2258D1*
X5060Y690D2*
X4630D1*
X4360Y960D1*
Y1470D1*
X4450Y1560D1*
X4640D1*
Y1570D1*
X4628D2*
X4620Y1562D1*
X4340Y1890D2*
X4412Y1818D1*
X4620D1*
X4330Y2350D2*
X4620D1*
Y2330D1*
X2650Y2890D2*
D14*
X2258D1*
Y2841D1*
X5000Y3019D2*
D16*
X4921Y3097D1*
X4620D1*
X5540Y750D2*
Y570D1*
X5620Y490D1*
X5750Y1200D2*
Y1360D1*
X5620Y1490D1*
Y2490D2*
X5054D1*
X5052Y2488D1*
X2640Y3700D2*
D14*
X2475Y3865D1*
X2258D1*
X1760Y3010D2*
D16*
Y3200D1*
X2169Y3609D1*
X2258D1*
X4620Y3353D2*
X4787D1*
X4860Y3280D1*
X5280D1*
X5394Y3394D1*
Y3550D1*
X5052Y2252D2*
Y2018D1*
X5060Y2010D1*
X2660Y1990D2*
X2576Y2074D1*
X2258D1*
X4620D2*
X4666Y2120D1*
X4320D1*
X4260Y3070D2*
X4250D1*
X4380Y2940D1*
Y2585D1*
X4620D1*
Y3865D2*
D14*
X4795D1*
X4890Y3960D1*
Y4270D1*
X5040Y4420D1*
X5730Y5110D1*
X5610D1*
X2480Y1560D2*
D16*
X2258D1*
Y1562D1*
D37*
X2640Y4380D3*
X3800Y290D3*
X3590Y1040D3*
X4330Y2350D3*
X2530Y4990D3*
X2650Y2890D3*
X5540Y750D3*
X5750Y1200D3*
X2710Y820D3*
X2640Y3700D3*
X2630Y400D3*
X1760Y3010D3*
X5060Y2010D3*
X3230Y270D3*
X2660Y1990D3*
X5850Y3360D3*
X5860Y3640D3*
X4320Y2120D3*
X5040Y4420D3*
D3*
D3*
D3*
X1980Y4560D3*
X2980Y5250D3*
X2630Y2570D3*
X2560Y1180D3*
X4340Y1890D3*
X4260Y3070D3*
X3420Y5070D3*
X5280Y3950D3*
X4070Y280D3*
X2480Y1560D3*
X4210Y2660D3*
X5810Y4700D3*
X3900Y5270D3*
X5060Y690D3*
D38*
X3440Y2490D3*
D37*
X5240Y1030D3*
D38*
X3440Y3550D3*
Y3030D3*
D37*
X4300Y740D3*
X3290Y4380D3*
X2779Y5567D2*
D16*
X4551D1*
X2720Y5508D2*
X4551D1*
X2662Y5449D2*
X4551D1*
X2603Y5390D2*
X4551D1*
X2544Y5332D2*
X4551D1*
X2486Y5273D2*
X4551D1*
X2427Y5214D2*
X3303D1*
X3537D2*
X4543D1*
X2369Y5156D2*
X2449D1*
X2611D2*
X3253D1*
X3586D2*
X4485D1*
X2310Y5097D2*
X2376D1*
X2684D2*
X3234D1*
X3606D2*
X4426D1*
X2251Y5038D2*
X2348D1*
X2712D2*
X3234D1*
X3605D2*
X4367D1*
X2192Y4980D2*
X2342D1*
X2718D2*
X3256D1*
X3585D2*
X4309D1*
X2133Y4921D2*
X2356D1*
X2704D2*
X3309D1*
X3531D2*
X4249D1*
X2075Y4862D2*
X2394D1*
X2666D2*
X4191D1*
X4634D2*
X5261D1*
X5703D2*
X5904D1*
X1777Y4804D2*
X4132D1*
X4575D2*
X5202D1*
X5645D2*
X5904D1*
X1831Y4745D2*
X4073D1*
X4516D2*
X5144D1*
X5586D2*
X5904D1*
X2117Y4686D2*
X4015D1*
X4457D2*
X5085D1*
X5528D2*
X5904D1*
X2155Y4628D2*
X3956D1*
X4399D2*
X5027D1*
X5469D2*
X5904D1*
X2168Y4569D2*
X3898D1*
X4340D2*
X4929D1*
X5410D2*
X5904D1*
X2774Y4510D2*
X3839D1*
X4281D2*
X4364D1*
X5352D2*
X5904D1*
X2814Y4451D2*
X3780D1*
X4223D2*
X4364D1*
X5293D2*
X5904D1*
X2868Y4393D2*
X3722D1*
X4164D2*
X4364D1*
X5235D2*
X5904D1*
X1878Y4334D2*
X2002D1*
X2927D2*
X3688D1*
X4106D2*
X4364D1*
X5206D2*
X5904D1*
X1846Y4275D2*
X2002D1*
X2986D2*
X3681D1*
X4047D2*
X4364D1*
X5157D2*
X5904D1*
X1163Y4217D2*
X1202D1*
X1799D2*
X2002D1*
X3044D2*
X3681D1*
X3998D2*
X4364D1*
X5058D2*
X5904D1*
X196Y4158D2*
X273D1*
X727D2*
X816D1*
X1163D2*
X1273D1*
X1727D2*
X2002D1*
X4167D2*
X4364D1*
X5048D2*
X5904D1*
X196Y4099D2*
X421D1*
X579D2*
X816D1*
X1163D2*
X1421D1*
X1579D2*
X2002D1*
X4167D2*
X4364D1*
X5048D2*
X5169D1*
X5390D2*
X5904D1*
X196Y4041D2*
X816D1*
X1163D2*
X2002D1*
X4167D2*
X4364D1*
X5048D2*
X5116D1*
X5444D2*
X5904D1*
X196Y3982D2*
X816D1*
X1163D2*
X2002D1*
X4167D2*
X4364D1*
X5048D2*
X5094D1*
X5465D2*
X5904D1*
X196Y3923D2*
X816D1*
X1163D2*
X2002D1*
X4167D2*
X4364D1*
X5043D2*
X5094D1*
X5466D2*
X5904D1*
X196Y3865D2*
X313D1*
X688D2*
X816D1*
X1163D2*
X1312D1*
X1687D2*
X2002D1*
X4167D2*
X4364D1*
X5014D2*
X5113D1*
X5447D2*
X5904D1*
X775Y3806D2*
X816D1*
X1163D2*
X1225D1*
X1775D2*
X2002D1*
X4167D2*
X4364D1*
X4957D2*
X5163D1*
X5398D2*
X5779D1*
X1830Y3747D2*
X2002D1*
X4167D2*
X4364D1*
X5630D2*
X5706D1*
X1867Y3689D2*
X2002D1*
X4167D2*
X4364D1*
X5630D2*
X5678D1*
X4167Y3630D2*
X4364D1*
X5630D2*
X5671D1*
X4167Y3571D2*
X4364D1*
X5630D2*
X5685D1*
X4167Y3512D2*
X4364D1*
X5630D2*
X5724D1*
X4167Y3454D2*
X4364D1*
X5630D2*
X5688D1*
X4167Y3395D2*
X4364D1*
X5630D2*
X5664D1*
X4167Y3336D2*
X4364D1*
X5630D2*
X5663D1*
X4167Y3278D2*
X4364D1*
X5457D2*
X5681D1*
X1163Y3219D2*
X1200D1*
X5630D2*
X5729D1*
X196Y3160D2*
X269D1*
X731D2*
X816D1*
X1163D2*
X1269D1*
X5630D2*
X5904D1*
X196Y3102D2*
X409D1*
X591D2*
X816D1*
X1163D2*
X1409D1*
X5630D2*
X5904D1*
X196Y3043D2*
X816D1*
X1163D2*
X1575D1*
X5630D2*
X5904D1*
X196Y2984D2*
X816D1*
X1163D2*
X1574D1*
X5630D2*
X5904D1*
X196Y2926D2*
X816D1*
X1163D2*
X1593D1*
X5630D2*
X5904D1*
X196Y2867D2*
X318D1*
X683D2*
X816D1*
X1163D2*
X1317D1*
X196Y2808D2*
X228D1*
X772D2*
X816D1*
X1163D2*
X1228D1*
X5245Y2045D2*
X5904D1*
X5247Y1987D2*
X5904D1*
X5229Y1928D2*
X5904D1*
X4876Y1869D2*
X4939D1*
X4876Y1811D2*
X5207D1*
X4167Y1752D2*
X4215D1*
X4876D2*
X5207D1*
X4167Y1693D2*
X4364D1*
X4876D2*
X5207D1*
X4167Y1634D2*
X4346D1*
X4876D2*
X5207D1*
X4167Y1576D2*
X4287D1*
X4876D2*
X5207D1*
X4167Y1517D2*
X4241D1*
X4876D2*
X5207D1*
X4167Y1458D2*
X4232D1*
X4876D2*
X5207D1*
X4167Y1400D2*
X4232D1*
X4876D2*
X5207D1*
X4167Y1341D2*
X4232D1*
X4876D2*
X5207D1*
X4167Y1282D2*
X4232D1*
X4876D2*
X5207D1*
X2956Y1224D2*
X4232D1*
X4876D2*
X5207D1*
X3014Y1165D2*
X3452D1*
X3729D2*
X4232D1*
X4876D2*
X5207D1*
X3766Y1106D2*
X4232D1*
X4876D2*
X5207D1*
X2691Y1048D2*
X2774D1*
X3778D2*
X4232D1*
X4876D2*
X5644D1*
X5856D2*
X5904D1*
X2514Y989D2*
X2635D1*
X2785D2*
X2832D1*
X3771D2*
X4232D1*
X4876D2*
X5904D1*
X2514Y930D2*
X2559D1*
X2861D2*
X2891D1*
X3741D2*
X4235D1*
X4876D2*
X5507D1*
X5573D2*
X5904D1*
X2071Y872D2*
X2529D1*
X2891D2*
X3514D1*
X3665D2*
X4269D1*
X4627D2*
X5038D1*
X5082D2*
X5207D1*
X2013Y813D2*
X2522D1*
X2898D2*
X4328D1*
X4686D2*
X4920D1*
X1954Y754D2*
X2534D1*
X2886D2*
X4387D1*
X1895Y695D2*
X2571D1*
X2849D2*
X4445D1*
X1890Y637D2*
X4504D1*
X1906Y578D2*
X2585D1*
X2674D2*
X4575D1*
X1913Y519D2*
X2486D1*
X2774D2*
X4990D1*
X5131D2*
X5207D1*
X1911Y461D2*
X2452D1*
X2807D2*
X3730D1*
X3870D2*
X4040D1*
X4099D2*
X5207D1*
X1901Y402D2*
X2442D1*
X2819D2*
X3098D1*
X3361D2*
X3650D1*
X4212D2*
X5207D1*
X1882Y343D2*
X2450D1*
X2809D2*
X3057D1*
X3403D2*
X3619D1*
X4246D2*
X5207D1*
X1852Y285D2*
X2483D1*
X2777D2*
X3042D1*
X3418D2*
X3612D1*
X4259D2*
X5207D1*
X1807Y226D2*
X2569D1*
X2690D2*
X3048D1*
X3413D2*
X3623D1*
X4250D2*
X5207D1*
X5624Y2897D2*
X5909D1*
X5910Y3130D1*
Y3187D1*
X5866Y3178D1*
X5837D1*
X5807Y3183D1*
X5778Y3192D1*
X5752Y3206D1*
X5728Y3224D1*
X5708Y3246D1*
X5691Y3271D1*
X5678Y3298D1*
X5671Y3327D1*
X5668Y3357D1*
X5670Y3387D1*
X5676Y3416D1*
X5688Y3444D1*
X5704Y3469D1*
X5724Y3492D1*
X5738Y3504D1*
X5718Y3526D1*
X5701Y3551D1*
X5688Y3578D1*
X5681Y3607D1*
X5678Y3637D1*
X5680Y3667D1*
X5686Y3696D1*
X5698Y3724D1*
X5714Y3749D1*
X5734Y3772D1*
X5757Y3790D1*
X5783Y3805D1*
X5811Y3816D1*
X5840Y3821D1*
X5870Y3822D1*
X5910Y3815D1*
Y4893D1*
X5728D1*
X5218Y4382D1*
X5213Y4361D1*
X5201Y4334D1*
X5184Y4308D1*
X5164Y4286D1*
X5141Y4268D1*
X5114Y4253D1*
X5078Y4242D1*
X5042Y4207D1*
Y3960D1*
X5039Y3930D1*
X5031Y3902D1*
X5017Y3875D1*
X4998Y3852D1*
X4935Y3789D1*
X4974Y3790D1*
X5193D1*
X5158Y3814D1*
X5138Y3836D1*
X5121Y3861D1*
X5108Y3888D1*
X5101Y3917D1*
X5098Y3947D1*
X5100Y3977D1*
X5106Y4006D1*
X5118Y4034D1*
X5134Y4059D1*
X5154Y4082D1*
X5177Y4100D1*
X5203Y4115D1*
X5231Y4126D1*
X5260Y4131D1*
X5290Y4132D1*
X5320Y4128D1*
X5349Y4119D1*
X5375Y4105D1*
X5400Y4088D1*
X5421Y4066D1*
X5438Y4042D1*
X5451Y4015D1*
X5459Y3986D1*
X5462Y3950D1*
X5460Y3920D1*
X5453Y3891D1*
X5441Y3864D1*
X5424Y3838D1*
X5404Y3816D1*
X5381Y3798D1*
X5367Y3790D1*
X5624D1*
Y3310D1*
X5482D1*
X5432Y3259D1*
X5624D1*
Y2897D1*
X5910Y2083D2*
X5228D1*
X5239Y2046D1*
X5242Y2010D1*
X5240Y1980D1*
X5233Y1951D1*
X5221Y1924D1*
X5204Y1898D1*
X5184Y1876D1*
X5161Y1858D1*
X5134Y1843D1*
X5106Y1834D1*
X5076Y1828D1*
X5047D1*
X5017Y1833D1*
X4988Y1842D1*
X4962Y1856D1*
X4938Y1874D1*
X4918Y1896D1*
X4901Y1921D1*
X4888Y1948D1*
X4881Y1977D1*
X4878Y2007D1*
X4880Y2037D1*
X4886Y2066D1*
X4897Y2091D1*
X4870D1*
X4869Y1922D1*
X4870Y1819D1*
X4869Y1666D1*
X4870Y1563D1*
X4869Y1410D1*
X4870Y1307D1*
X4869Y1154D1*
X4870Y1051D1*
Y899D1*
X4595Y898D1*
X4681Y813D1*
X4925Y812D1*
X4957Y840D1*
X4983Y855D1*
X5011Y866D1*
X5040Y871D1*
X5070Y872D1*
X5100Y868D1*
X5129Y859D1*
X5155Y845D1*
X5180Y828D1*
X5201Y806D1*
X5213Y789D1*
Y897D1*
X5433D1*
X5463Y915D1*
X5491Y926D1*
X5520Y931D1*
X5550Y932D1*
X5580Y928D1*
X5609Y919D1*
X5635Y905D1*
X5647Y897D1*
X5909D1*
X5910Y1060D1*
Y1083D1*
X5890D1*
X5874Y1066D1*
X5851Y1048D1*
X5824Y1033D1*
X5796Y1024D1*
X5766Y1018D1*
X5737D1*
X5707Y1023D1*
X5678Y1032D1*
X5652Y1046D1*
X5628Y1064D1*
X5611Y1083D1*
X5213D1*
Y1897D1*
X5909D1*
X5910Y1990D1*
Y2083D1*
X5213Y190D2*
Y590D1*
X5184Y556D1*
X5161Y538D1*
X5134Y523D1*
X5106Y514D1*
X5076Y508D1*
X5047D1*
X5017Y513D1*
X4988Y522D1*
X4962Y536D1*
X4938Y554D1*
X4926Y567D1*
X4630Y568D1*
X4600Y571D1*
X4572Y582D1*
X4543Y603D1*
X4273Y873D1*
X4255Y897D1*
X4243Y924D1*
X4238Y960D1*
Y1470D1*
X4241Y1500D1*
X4252Y1528D1*
X4273Y1557D1*
X4364Y1647D1*
X4370Y1666D1*
Y1703D1*
X4356Y1708D1*
X4327D1*
X4297Y1713D1*
X4268Y1722D1*
X4242Y1736D1*
X4218Y1754D1*
X4198Y1776D1*
X4181Y1801D1*
X4168Y1828D1*
X4161Y1854D1*
Y1243D1*
X2930D1*
X3041Y1133D1*
X3433Y1132D1*
X3444Y1149D1*
X3464Y1172D1*
X3487Y1190D1*
X3513Y1205D1*
X3541Y1216D1*
X3570Y1221D1*
X3600Y1222D1*
X3630Y1218D1*
X3659Y1209D1*
X3685Y1195D1*
X3710Y1178D1*
X3731Y1156D1*
X3748Y1132D1*
X3761Y1105D1*
X3769Y1076D1*
X3772Y1040D1*
X3770Y1010D1*
X3763Y981D1*
X3751Y954D1*
X3734Y928D1*
X3714Y906D1*
X3691Y888D1*
X3664Y873D1*
X3636Y864D1*
X3606Y858D1*
X3577D1*
X3547Y863D1*
X3518Y872D1*
X3490Y888D1*
X2990D1*
X2960Y891D1*
X2932Y902D1*
X2903Y923D1*
X2725Y1102D1*
X2704Y1068D1*
X2684Y1046D1*
X2661Y1028D1*
X2634Y1013D1*
X2606Y1004D1*
X2576Y998D1*
X2547D1*
X2507Y1006D1*
X2508Y899D1*
X2090D1*
X2077Y883D1*
X1868Y674D1*
X1887Y627D1*
X1901Y569D1*
X1907Y510D1*
X1906Y470D1*
X1897Y411D1*
X1880Y353D1*
X1854Y299D1*
X1821Y249D1*
X1781Y205D1*
X1763Y189D1*
X2140Y190D1*
X3065D1*
X3051Y237D1*
X3048Y267D1*
X3050Y297D1*
X3056Y326D1*
X3068Y354D1*
X3084Y379D1*
X3104Y402D1*
X3127Y420D1*
X3153Y435D1*
X3181Y446D1*
X3210Y451D1*
X3240Y452D1*
X3270Y448D1*
X3299Y439D1*
X3325Y425D1*
X3350Y408D1*
X3371Y386D1*
X3388Y362D1*
X3401Y335D1*
X3409Y306D1*
X3412Y270D1*
X3410Y240D1*
X3403Y211D1*
X3393Y190D1*
X3648D1*
X3641Y201D1*
X3628Y228D1*
X3621Y257D1*
X3618Y287D1*
X3620Y317D1*
X3626Y346D1*
X3638Y374D1*
X3654Y399D1*
X3674Y422D1*
X3697Y440D1*
X3723Y455D1*
X3751Y466D1*
X3780Y471D1*
X3810Y472D1*
X3840Y468D1*
X3869Y459D1*
X3895Y445D1*
X3920Y428D1*
X3940Y407D1*
X3967Y430D1*
X3993Y445D1*
X4021Y456D1*
X4050Y461D1*
X4080Y462D1*
X4110Y458D1*
X4139Y449D1*
X4165Y435D1*
X4190Y418D1*
X4211Y396D1*
X4228Y372D1*
X4241Y345D1*
X4249Y316D1*
X4252Y280D1*
X4250Y250D1*
X4243Y221D1*
X4228Y190D1*
X5212D1*
X5242Y5595D2*
Y4898D1*
X4664D1*
X3992Y4226D1*
Y4184D1*
X4161D1*
Y3223D1*
X4183Y3235D1*
X4211Y3246D1*
X4240Y3251D1*
X4270Y3252D1*
X4300Y3248D1*
X4329Y3239D1*
X4355Y3225D1*
X4370Y3216D1*
X4371Y3249D1*
X4370Y3352D1*
X4371Y3505D1*
X4370Y3518D1*
X4371Y4016D1*
X4370Y4119D1*
X4371Y4272D1*
X4370Y4375D1*
Y4528D1*
X4870D1*
Y4486D1*
X4878Y4504D1*
X4894Y4529D1*
X4914Y4552D1*
X4937Y4570D1*
X4963Y4585D1*
X5003Y4598D1*
X5298Y4893D1*
X5268D1*
X5269Y5327D1*
X5268Y5427D1*
Y5570D1*
X5242Y5596D1*
X4558Y5253D2*
Y5603D1*
X2810D1*
X2068Y4862D1*
X2045Y4842D1*
X2019Y4828D1*
X1991Y4818D1*
X1966Y4813D1*
X1762D1*
X1795Y4781D1*
X1833Y4734D1*
X1857Y4695D1*
X1877Y4710D1*
X1903Y4725D1*
X1931Y4736D1*
X1960Y4741D1*
X1990Y4742D1*
X2020Y4738D1*
X2049Y4729D1*
X2075Y4715D1*
X2100Y4698D1*
X2121Y4676D1*
X2138Y4652D1*
X2151Y4625D1*
X2159Y4596D1*
X2162Y4560D1*
X2159Y4527D1*
X2398Y4528D1*
X2508D1*
Y4505D1*
X2537Y4530D1*
X2563Y4545D1*
X2591Y4556D1*
X2620Y4561D1*
X2650Y4562D1*
X2680Y4558D1*
X2709Y4549D1*
X2735Y4535D1*
X2760Y4518D1*
X2781Y4496D1*
X2798Y4472D1*
X2810Y4445D1*
X3028Y4228D1*
X3048Y4203D1*
X3077Y4184D1*
X3687D1*
X3688Y4290D1*
X3691Y4320D1*
X3699Y4348D1*
X3713Y4375D1*
X3732Y4398D1*
X4557Y5223D1*
X4559Y5333D1*
X2009Y4225D2*
X2008Y4380D1*
X1967Y4378D1*
X1937Y4383D1*
X1908Y4392D1*
X1894Y4400D1*
X1880Y4353D1*
X1854Y4299D1*
X1821Y4249D1*
X1781Y4205D1*
X1735Y4167D1*
X1683Y4136D1*
X1628Y4113D1*
X1570Y4099D1*
X1510Y4093D1*
X1450Y4096D1*
X1391Y4107D1*
X1335Y4128D1*
X1282Y4156D1*
X1234Y4192D1*
X1191Y4234D1*
X1157Y4280D1*
Y3720D1*
X1185Y3759D1*
X1218Y3794D1*
X1254Y3825D1*
X1294Y3852D1*
X1337Y3873D1*
X1382Y3890D1*
X1429Y3901D1*
X1476Y3907D1*
X1524D1*
X1572Y3901D1*
X1619Y3890D1*
X1664Y3873D1*
X1706Y3851D1*
X1746Y3825D1*
X1783Y3793D1*
X1815Y3758D1*
X1843Y3719D1*
X1865Y3680D1*
X2008D1*
X2009Y3761D1*
X2008Y3864D1*
X2009Y4016D1*
X2008Y4119D1*
X2009Y4272D1*
X3600Y5040D2*
X3593Y5011D1*
X3581Y4984D1*
X3564Y4958D1*
X3544Y4936D1*
X3521Y4918D1*
X3494Y4903D1*
X3466Y4894D1*
X3436Y4888D1*
X3407D1*
X3377Y4893D1*
X3348Y4902D1*
X3322Y4916D1*
X3298Y4934D1*
X3278Y4956D1*
X3261Y4981D1*
X3248Y5008D1*
X3241Y5037D1*
X3238Y5067D1*
X3240Y5097D1*
X3246Y5126D1*
X3258Y5154D1*
X3274Y5179D1*
X3294Y5202D1*
X3317Y5220D1*
X3343Y5235D1*
X3371Y5246D1*
X3400Y5251D1*
X3430Y5252D1*
X3460Y5248D1*
X3489Y5239D1*
X3515Y5225D1*
X3540Y5208D1*
X3561Y5186D1*
X3578Y5162D1*
X3591Y5135D1*
X3599Y5106D1*
X3602Y5070D1*
X3600Y5040D1*
X823Y4252D2*
X781Y4205D1*
X735Y4167D1*
X683Y4136D1*
X628Y4113D1*
X570Y4099D1*
X510Y4093D1*
X450Y4096D1*
X391Y4107D1*
X335Y4128D1*
X282Y4156D1*
X234Y4192D1*
X190Y4236D1*
Y3765D1*
X227Y3802D1*
X264Y3832D1*
X305Y3858D1*
X348Y3878D1*
X394Y3893D1*
X441Y3903D1*
X488Y3907D1*
X536Y3906D1*
X584Y3899D1*
X630Y3886D1*
X675Y3868D1*
X717Y3845D1*
X756Y3817D1*
X791Y3785D1*
X823Y3749D1*
Y4252D1*
Y3252D2*
X789Y3213D1*
X754Y3181D1*
X714Y3154D1*
X672Y3131D1*
X628Y3113D1*
X581Y3101D1*
X534Y3094D1*
X486Y3093D1*
X438Y3097D1*
X391Y3107D1*
X346Y3123D1*
X303Y3144D1*
X262Y3169D1*
X225Y3200D1*
X190Y3236D1*
Y2763D1*
X227Y2802D1*
X274Y2839D1*
X326Y2868D1*
X382Y2890D1*
X441Y2903D1*
X500Y2907D1*
X560Y2903D1*
X619Y2890D1*
X675Y2868D1*
X727Y2838D1*
X774Y2802D1*
X815Y2758D1*
X823Y2748D1*
Y3251D1*
X1605Y3106D2*
X1558Y3097D1*
X1510Y3093D1*
X1462Y3094D1*
X1415Y3102D1*
X1368Y3115D1*
X1324Y3133D1*
X1282Y3156D1*
X1243Y3184D1*
X1208Y3216D1*
X1176Y3253D1*
X1157Y3280D1*
Y2721D1*
X1185Y2759D1*
X1227Y2802D1*
X1274Y2839D1*
X1326Y2868D1*
X1382Y2890D1*
X1441Y2903D1*
X1500Y2907D1*
X1560Y2903D1*
X1619Y2890D1*
X1625Y2888D1*
X1601Y2921D1*
X1588Y2948D1*
X1581Y2977D1*
X1578Y3007D1*
X1580Y3037D1*
X1586Y3066D1*
X1598Y3094D1*
X1606Y3107D1*
X2710Y4960D2*
X2703Y4931D1*
X2691Y4904D1*
X2674Y4878D1*
X2654Y4856D1*
X2631Y4838D1*
X2604Y4823D1*
X2576Y4814D1*
X2546Y4808D1*
X2517D1*
X2487Y4813D1*
X2458Y4822D1*
X2432Y4836D1*
X2408Y4854D1*
X2388Y4876D1*
X2371Y4901D1*
X2358Y4928D1*
X2351Y4957D1*
X2348Y4987D1*
X2350Y5017D1*
X2356Y5046D1*
X2368Y5074D1*
X2384Y5099D1*
X2404Y5122D1*
X2427Y5140D1*
X2453Y5155D1*
X2481Y5166D1*
X2510Y5171D1*
X2540Y5172D1*
X2570Y5168D1*
X2599Y5159D1*
X2625Y5145D1*
X2650Y5128D1*
X2671Y5106D1*
X2688Y5082D1*
X2701Y5055D1*
X2709Y5026D1*
X2712Y4990D1*
X2710Y4960D1*
X2890Y790D2*
X2883Y761D1*
X2871Y734D1*
X2854Y708D1*
X2834Y686D1*
X2811Y668D1*
X2784Y653D1*
X2756Y644D1*
X2726Y638D1*
X2697D1*
X2667Y643D1*
X2638Y652D1*
X2612Y666D1*
X2588Y684D1*
X2568Y706D1*
X2551Y731D1*
X2538Y758D1*
X2531Y787D1*
X2528Y817D1*
X2530Y847D1*
X2536Y876D1*
X2548Y904D1*
X2564Y929D1*
X2584Y952D1*
X2607Y970D1*
X2633Y985D1*
X2661Y996D1*
X2690Y1001D1*
X2720Y1002D1*
X2750Y998D1*
X2779Y989D1*
X2805Y975D1*
X2830Y958D1*
X2851Y936D1*
X2868Y912D1*
X2881Y885D1*
X2889Y856D1*
X2892Y820D1*
X2890Y790D1*
X2810Y370D2*
X2803Y341D1*
X2791Y314D1*
X2774Y288D1*
X2754Y266D1*
X2731Y248D1*
X2704Y233D1*
X2676Y224D1*
X2646Y218D1*
X2617D1*
X2587Y223D1*
X2558Y232D1*
X2532Y246D1*
X2508Y264D1*
X2488Y286D1*
X2471Y311D1*
X2458Y338D1*
X2451Y367D1*
X2448Y397D1*
X2450Y427D1*
X2456Y456D1*
X2468Y484D1*
X2484Y509D1*
X2504Y532D1*
X2527Y550D1*
X2553Y565D1*
X2581Y576D1*
X2610Y581D1*
X2640Y582D1*
X2670Y578D1*
X2699Y569D1*
X2725Y555D1*
X2750Y538D1*
X2771Y516D1*
X2788Y492D1*
X2801Y465D1*
X2809Y436D1*
X2812Y400D1*
X2810Y370D1*
X5218Y4382D2*
X5213Y4361D1*
X5201Y4334D1*
X5184Y4308D1*
X5164Y4286D1*
X5141Y4268D1*
X5114Y4253D1*
X5078Y4242D1*
X5218Y4382D2*
X5213Y4361D1*
X5201Y4334D1*
X5184Y4308D1*
X5164Y4286D1*
X5141Y4268D1*
X5114Y4253D1*
X5078Y4242D1*
X5218Y4382D2*
X5213Y4361D1*
X5201Y4334D1*
X5184Y4308D1*
X5164Y4286D1*
X5141Y4268D1*
X5114Y4253D1*
X5078Y4242D1*
X4558Y5470D2*
D19*
X5242D1*
X4370Y3609D2*
X4620D1*
X5000Y3790D2*
Y3550D1*
X5394Y3019D2*
X5624D1*
X500Y3907D2*
Y3093D1*
X1500Y3907D2*
Y3093D1*
D28*
X5620Y2490D3*
Y1490D3*
Y490D3*
D29*
X4900Y5470D3*
Y5116D3*
D31*
X4620Y1050D3*
Y1306D3*
Y1562D3*
Y1818D3*
Y2074D3*
Y2330D3*
Y2585D3*
Y2841D3*
Y3097D3*
Y3353D3*
Y3609D3*
Y3865D3*
Y4121D3*
Y4377D3*
X2258D3*
Y4121D3*
Y3865D3*
Y3609D3*
Y3353D3*
Y3097D3*
Y2841D3*
Y2585D3*
Y2330D3*
Y2074D3*
Y1818D3*
Y1562D3*
Y1306D3*
Y1050D3*
D32*
X3439Y2713D3*
D33*
X5000Y3550D3*
Y3019D3*
X5394D3*
Y3550D3*
D23*
X5052Y2252D3*
Y2488D3*
D28*
X500Y5500D3*
D36*
X1500D3*
X500Y4500D3*
X1500D3*
X500Y3500D3*
X1500D3*
X500Y2500D3*
X1500D3*
X500Y1500D3*
X1500D3*
X500Y500D3*
X1500D3*
D29*
X5610Y5110D3*
Y5464D3*
M02*
