M48
INCH
T01C0.01
T02C0.02
T03C0.0394
%
T01
X+002980Y+005250
X+003420Y+005070
X+003900Y+005270
X+003290Y+004380
X+002640Y+004380
X+002530Y+004990
X+001980Y+004560
X+002640Y+003700
X+002650Y+002890
X+002630Y+002570
X+002660Y+001990
X+002480Y+001560
X+002560Y+001180
X+002710Y+000820
X+002630Y+000400
X+003230Y+000270
X+003800Y+000290
X+004070Y+000280
X+004300Y+000740
X+005060Y+000690
X+005240Y+001030
X+005540Y+000750
X+005750Y+001200
X+005060Y+002010
X+004340Y+001890
X+004320Y+002120
X+004330Y+002350
X+004210Y+002660
X+004260Y+003070
X+005280Y+003950
X+005040Y+004420
X+005810Y+004700
X+005860Y+003640
X+005850Y+003360
X+003590Y+001040
X+001760Y+003010
T02
X+003440Y+002490
X+003440Y+003030
X+003440Y+003550
T03
X+000500Y+005500
X+000500Y+004500
X+000500Y+003500
X+000500Y+002500
X+000500Y+001500
X+000500Y+000500
X+001500Y+000500
X+001500Y+001500
X+001500Y+002500
X+001500Y+003500
X+001500Y+004500
X+001500Y+005500
T00
M30
