G04 DipTrace Beta 2.3.5.2*
%INMicroOSD.GTS*%
%MOIN*%
%ADD23R,0.0197X0.0138*%
%ADD24R,0.0138X0.0197*%
%ADD25R,0.0197X0.0315*%
%ADD34R,0.022X0.05*%
%ADD35R,0.05X0.022*%
%ADD45C,0.067*%
%ADD59R,0.067X0.067*%
%ADD61R,0.034X0.036*%
%FSLAX44Y44*%
G04*
G70*
G90*
G75*
G01*
%LNTopMask*%
%LPD*%
D23*
X3540Y640D3*
Y404D3*
D24*
X3950Y620D3*
X4186D3*
X4170Y960D3*
X3934D3*
X2030Y5020D3*
X2266D3*
D23*
X1950Y1190D3*
Y954D3*
D24*
X4370Y5400D3*
X4134D3*
D25*
X2860Y810D3*
X2309D3*
X2860Y410D3*
X2309D3*
D61*
X5530Y390D3*
X4930D3*
D23*
X3230Y410D3*
Y646D3*
D24*
X2376Y4710D3*
X2140D3*
X2200Y1680D3*
X1964D3*
D23*
X5520Y4860D3*
Y4624D3*
D24*
X3220Y1040D3*
X3456D3*
X4332Y362D3*
X4568D3*
X4450Y710D3*
X4686D3*
X4510Y1020D3*
X4746D3*
X5310Y1290D3*
X5546D3*
D34*
X4990Y4860D3*
X4675D3*
X4360D3*
X4045D3*
X3730D3*
X3415D3*
X3100D3*
X2785D3*
D35*
X2198Y4272D3*
Y3957D3*
Y3642D3*
Y3327D3*
Y3013D3*
Y2698D3*
Y2383D3*
Y2068D3*
D34*
X2785Y1480D3*
X3100D3*
X3415D3*
X3730D3*
X4045D3*
X4360D3*
X4675D3*
X4990D3*
D35*
X5578Y2068D3*
Y2383D3*
Y2698D3*
Y3013D3*
Y3327D3*
Y3642D3*
Y3957D3*
Y4272D3*
D59*
X500Y5500D3*
D45*
X1500D3*
X500Y4500D3*
X1500D3*
X500Y3500D3*
X1500D3*
X500Y2500D3*
X1500D3*
X500Y1500D3*
X1500D3*
X500Y500D3*
X1500D3*
G36*
X3322Y5225D2*
X3598D1*
Y5895D1*
X3322D1*
Y5225D1*
G37*
G36*
X2850D2*
X3125D1*
Y5895D1*
X2850D1*
Y5225D1*
G37*
G36*
X2377D2*
X2653D1*
Y5895D1*
X2377D1*
Y5225D1*
G37*
G36*
X3000Y3960D2*
X3900D1*
Y2230D1*
X3000D1*
Y3960D1*
G37*
M02*
