G04 DipTrace Beta 2.3.5.2*
%INMicroOSD.GBO*%
%MOIN*%
%ADD20C,0.005*%
%ADD21C,0.008*%
%ADD69C,0.0031*%
%ADD70C,0.0046*%
%FSLAX44Y44*%
G04*
G70*
G90*
G75*
G01*
%LNBottom BottomSilk*%
%LPD*%
X4600Y5630D2*
D20*
X5200D1*
Y4950D1*
X4600D1*
Y5630D1*
X5310D2*
X5910D1*
Y4950D1*
X5310D1*
Y5630D1*
G36*
X80Y1010D2*
X1960D1*
Y70D1*
X80D1*
Y1010D1*
G37*
X120Y1970D2*
D21*
X1920D1*
Y1000D1*
X120D1*
Y1970D1*
G36*
X60Y3980D2*
X1940D1*
Y3040D1*
X60D1*
Y3980D1*
G37*
X4275Y5411D2*
D69*
X4256Y5421D1*
X4237Y5440D1*
X4227Y5459D1*
Y5497D1*
X4237Y5516D1*
X4256Y5535D1*
X4275Y5545D1*
X4304Y5555D1*
X4352D1*
X4380Y5545D1*
X4399Y5535D1*
X4418Y5516D1*
X4428Y5497D1*
Y5459D1*
X4418Y5440D1*
X4399Y5421D1*
X4380Y5411D1*
X4352D1*
Y5459D1*
X4227Y5215D2*
X4428D1*
X4227Y5349D1*
X4428D1*
X4227Y5154D2*
X4428D1*
Y5087D1*
X4418Y5058D1*
X4399Y5039D1*
X4380Y5029D1*
X4352Y5020D1*
X4304D1*
X4275Y5029D1*
X4256Y5039D1*
X4237Y5058D1*
X4227Y5087D1*
Y5154D1*
X5457Y4865D2*
X5658Y4788D1*
X5457Y4712D1*
X5505Y4506D2*
X5486Y4516D1*
X5467Y4535D1*
X5457Y4554D1*
Y4592D1*
X5467Y4612D1*
X5486Y4631D1*
X5505Y4640D1*
X5534Y4650D1*
X5582D1*
X5610Y4640D1*
X5629Y4631D1*
X5648Y4612D1*
X5658Y4592D1*
Y4554D1*
X5648Y4535D1*
X5629Y4516D1*
X5610Y4506D1*
X5505Y4301D2*
X5486Y4311D1*
X5467Y4330D1*
X5457Y4349D1*
Y4387D1*
X5467Y4406D1*
X5486Y4425D1*
X5505Y4435D1*
X5534Y4445D1*
X5582D1*
X5610Y4435D1*
X5629Y4425D1*
X5648Y4406D1*
X5658Y4387D1*
Y4349D1*
X5648Y4330D1*
X5629Y4311D1*
X5610Y4301D1*
X4882Y490D2*
D70*
X5183Y376D1*
X4882Y261D1*
X4963Y1406D2*
X4934Y1420D1*
X4906Y1449D1*
X4891Y1477D1*
Y1535D1*
X4906Y1563D1*
X4934Y1592D1*
X4963Y1607D1*
X5006Y1621D1*
X5078D1*
X5121Y1607D1*
X5150Y1592D1*
X5178Y1563D1*
X5193Y1535D1*
Y1477D1*
X5178Y1449D1*
X5150Y1420D1*
X5121Y1406D1*
X2918Y5432D2*
Y5561D1*
X2933Y5604D1*
X2947Y5619D1*
X2976Y5633D1*
X3005D1*
X3033Y5619D1*
X3048Y5604D1*
X3062Y5561D1*
Y5432D1*
X2761D1*
X2918Y5533D2*
X2761Y5633D1*
X3062Y5726D2*
X2761Y5927D1*
X3062D2*
X2761Y5726D1*
X3072Y4813D2*
X2771D1*
X3072Y4712D2*
Y4913D1*
Y5006D2*
X2771Y5207D1*
X3072D2*
X2771Y5006D1*
X2312Y4699D2*
D69*
X2111D1*
Y4766D1*
X2121Y4795D1*
X2140Y4814D1*
X2159Y4824D1*
X2188Y4833D1*
X2236D1*
X2264Y4824D1*
X2283Y4814D1*
X2303Y4795D1*
X2312Y4766D1*
Y4699D1*
Y4962D2*
X2111D1*
X2312Y4895D2*
Y5029D1*
X2216Y5091D2*
Y5177D1*
X2226Y5205D1*
X2236Y5215D1*
X2255Y5225D1*
X2274D1*
X2293Y5215D1*
X2303Y5205D1*
X2312Y5177D1*
Y5091D1*
X2111D1*
X2216Y5158D2*
X2111Y5225D1*
X2302Y5371D2*
X2101Y5448D1*
X2302Y5524D1*
X2254Y5729D2*
X2273Y5720D1*
X2293Y5701D1*
X2302Y5682D1*
Y5643D1*
X2293Y5624D1*
X2273Y5605D1*
X2254Y5595D1*
X2226Y5586D1*
X2178D1*
X2149Y5595D1*
X2130Y5605D1*
X2111Y5624D1*
X2101Y5643D1*
Y5682D1*
X2111Y5701D1*
X2130Y5720D1*
X2149Y5729D1*
X2254Y5935D2*
X2273Y5925D1*
X2293Y5906D1*
X2302Y5887D1*
Y5849D1*
X2293Y5829D1*
X2273Y5810D1*
X2254Y5801D1*
X2226Y5791D1*
X2178D1*
X2149Y5801D1*
X2130Y5810D1*
X2111Y5829D1*
X2101Y5849D1*
Y5887D1*
X2111Y5906D1*
X2130Y5925D1*
X2149Y5935D1*
M02*
