G04 DipTrace Beta 2.3.5.2*
%INMicroOSD.G3L*%
%MOIN*%
%ADD14C,0.012*%
%ADD16C,0.006*%
%ADD19C,0.007*%
%ADD28R,0.063X0.063*%
%ADD36C,0.063*%
%ADD37C,0.018*%
%ADD38C,0.035*%
%FSLAX44Y44*%
G04*
G70*
G90*
G75*
G01*
%LNInner2*%
%LPD*%
X3800Y290D2*
D16*
Y580D1*
X2830Y1550D1*
Y5010D1*
X2670Y5170D1*
X1920D1*
X1750Y5000D1*
X870D1*
X450Y4580D1*
Y4340D1*
X500D1*
Y4500D1*
X2530Y4990D2*
D14*
X2420Y4880D1*
Y3120D1*
X2650Y2890D1*
X3230Y270D2*
D16*
Y980D1*
X2660Y1550D1*
Y1990D1*
X2630Y2020D1*
Y2570D1*
X1500Y5500D2*
X4750D1*
X5860Y4390D1*
Y3640D1*
X5040Y4420D2*
D14*
X4910D1*
X4760Y4270D1*
Y580D1*
X4460Y280D1*
X4070D1*
X500Y2500D2*
X1020Y3020D1*
Y3710D1*
X1320Y4010D1*
X1700D1*
X1980Y4290D1*
Y4560D1*
D37*
X2640Y4380D3*
X3800Y290D3*
X3590Y1040D3*
X4330Y2350D3*
X2530Y4990D3*
X2650Y2890D3*
X5540Y750D3*
X5750Y1200D3*
X2710Y820D3*
X2640Y3700D3*
X2630Y400D3*
X1760Y3010D3*
X5060Y2010D3*
X3230Y270D3*
X2660Y1990D3*
X5850Y3360D3*
X5860Y3640D3*
X4320Y2120D3*
X5040Y4420D3*
D3*
D3*
D3*
X1980Y4560D3*
X2980Y5250D3*
X2630Y2570D3*
X2560Y1180D3*
X4340Y1890D3*
X4260Y3070D3*
X3420Y5070D3*
X5280Y3950D3*
X4070Y280D3*
X2480Y1560D3*
X4210Y2660D3*
X5810Y4700D3*
X3900Y5270D3*
X5060Y690D3*
D38*
X3440Y2490D3*
D37*
X5240Y1030D3*
D38*
X3440Y3550D3*
Y3030D3*
D37*
X4300Y740D3*
X3290Y4380D3*
X914Y5801D2*
D16*
X1220D1*
X1780D2*
X5904D1*
X914Y5743D2*
X1167D1*
X1833D2*
X5904D1*
X914Y5684D2*
X1130D1*
X1869D2*
X5904D1*
X914Y5625D2*
X1107D1*
X1893D2*
X5904D1*
X914Y5567D2*
X1092D1*
X4862D2*
X5904D1*
X914Y5508D2*
X1087D1*
X4921D2*
X5904D1*
X914Y5449D2*
X1090D1*
X4980D2*
X5904D1*
X914Y5390D2*
X1101D1*
X5039D2*
X5904D1*
X914Y5332D2*
X1123D1*
X1876D2*
X4739D1*
X5097D2*
X5904D1*
X914Y5273D2*
X1156D1*
X2742D2*
X4798D1*
X5156D2*
X5904D1*
X914Y5214D2*
X1204D1*
X2805D2*
X3303D1*
X3537D2*
X4857D1*
X5215D2*
X5904D1*
X914Y5156D2*
X1277D1*
X2863D2*
X3253D1*
X3586D2*
X4915D1*
X5273D2*
X5904D1*
X2922Y5097D2*
X3234D1*
X3606D2*
X4974D1*
X5332D2*
X5904D1*
X196Y5038D2*
X729D1*
X1967D2*
X2348D1*
X2955D2*
X3234D1*
X3605D2*
X5032D1*
X5390D2*
X5904D1*
X196Y4980D2*
X671D1*
X1908D2*
X2299D1*
X2958D2*
X3256D1*
X3585D2*
X5091D1*
X5449D2*
X5904D1*
X196Y4921D2*
X612D1*
X1850D2*
X2268D1*
X2958D2*
X3309D1*
X3531D2*
X5150D1*
X5508D2*
X5904D1*
X196Y4862D2*
X308D1*
X911D2*
X1309D1*
X1692D2*
X2262D1*
X2666D2*
X2702D1*
X2958D2*
X5209D1*
X5566D2*
X5904D1*
X196Y4804D2*
X223D1*
X853D2*
X1222D1*
X1777D2*
X2262D1*
X2579D2*
X2702D1*
X2958D2*
X5268D1*
X5626D2*
X5904D1*
X831Y4745D2*
X1169D1*
X1831D2*
X2262D1*
X2579D2*
X2702D1*
X2958D2*
X5326D1*
X5684D2*
X5904D1*
X868Y4686D2*
X1132D1*
X2117D2*
X2262D1*
X2579D2*
X2702D1*
X2958D2*
X5385D1*
X5743D2*
X5904D1*
X893Y4628D2*
X1107D1*
X2155D2*
X2262D1*
X2579D2*
X2702D1*
X2958D2*
X5444D1*
X5802D2*
X5904D1*
X907Y4569D2*
X1093D1*
X2168D2*
X2262D1*
X2579D2*
X2702D1*
X2958D2*
X4872D1*
X5151D2*
X5502D1*
X5860D2*
X5904D1*
X913Y4510D2*
X1087D1*
X2161D2*
X2262D1*
X2958D2*
X4779D1*
X5205D2*
X5561D1*
X910Y4451D2*
X1090D1*
X2138D2*
X2262D1*
X2958D2*
X4720D1*
X5225D2*
X5619D1*
X899Y4393D2*
X1101D1*
X2138D2*
X2262D1*
X2958D2*
X4661D1*
X5226D2*
X5678D1*
X878Y4334D2*
X1122D1*
X2138D2*
X2262D1*
X2958D2*
X4616D1*
X5206D2*
X5732D1*
X846Y4275D2*
X1154D1*
X2138D2*
X2262D1*
X2958D2*
X4602D1*
X5157D2*
X5732D1*
X798Y4217D2*
X1202D1*
X2119D2*
X2262D1*
X2958D2*
X4602D1*
X4928D2*
X5732D1*
X196Y4158D2*
X273D1*
X727D2*
X1273D1*
X2070D2*
X2262D1*
X2579D2*
X2702D1*
X2958D2*
X4602D1*
X4919D2*
X5732D1*
X196Y4099D2*
X421D1*
X579D2*
X1188D1*
X2011D2*
X2262D1*
X2579D2*
X2702D1*
X2958D2*
X4602D1*
X4919D2*
X5169D1*
X5390D2*
X5732D1*
X196Y4041D2*
X1129D1*
X1952D2*
X2262D1*
X2579D2*
X2702D1*
X2958D2*
X4602D1*
X4919D2*
X5116D1*
X5444D2*
X5732D1*
X196Y3982D2*
X1070D1*
X1893D2*
X2262D1*
X2579D2*
X2702D1*
X2958D2*
X4602D1*
X4919D2*
X5094D1*
X5465D2*
X5732D1*
X196Y3923D2*
X1012D1*
X1834D2*
X2262D1*
X2579D2*
X2702D1*
X2958D2*
X4602D1*
X4919D2*
X5094D1*
X5466D2*
X5732D1*
X196Y3865D2*
X313D1*
X688D2*
X953D1*
X1751D2*
X2262D1*
X2958D2*
X4602D1*
X4919D2*
X5113D1*
X5447D2*
X5732D1*
X196Y3806D2*
X225D1*
X775D2*
X896D1*
X1775D2*
X2262D1*
X2958D2*
X3357D1*
X3523D2*
X4602D1*
X4919D2*
X5163D1*
X5398D2*
X5732D1*
X829Y3747D2*
X866D1*
X1830D2*
X2262D1*
X2958D2*
X3254D1*
X3627D2*
X4602D1*
X4919D2*
X5706D1*
X1867Y3689D2*
X2262D1*
X2958D2*
X3205D1*
X3675D2*
X4602D1*
X4919D2*
X5678D1*
X1892Y3630D2*
X2262D1*
X2958D2*
X3179D1*
X3701D2*
X4602D1*
X4919D2*
X5672D1*
X1907Y3571D2*
X2262D1*
X2958D2*
X3168D1*
X3712D2*
X4602D1*
X4919D2*
X5685D1*
X1913Y3512D2*
X2262D1*
X2579D2*
X2702D1*
X2958D2*
X3169D1*
X3710D2*
X4602D1*
X4919D2*
X5724D1*
X1910Y3454D2*
X2262D1*
X2579D2*
X2702D1*
X2958D2*
X3184D1*
X3695D2*
X4602D1*
X4919D2*
X5688D1*
X1900Y3395D2*
X2262D1*
X2579D2*
X2702D1*
X2958D2*
X3216D1*
X3664D2*
X4602D1*
X4919D2*
X5665D1*
X1879Y3336D2*
X2262D1*
X2579D2*
X2702D1*
X2958D2*
X3274D1*
X3607D2*
X4602D1*
X4919D2*
X5663D1*
X1847Y3278D2*
X2262D1*
X2579D2*
X2702D1*
X2958D2*
X3334D1*
X3546D2*
X4602D1*
X4919D2*
X5681D1*
X801Y3219D2*
X861D1*
X1178D2*
X1199D1*
X1801D2*
X2262D1*
X2579D2*
X2702D1*
X2958D2*
X3245D1*
X3635D2*
X4149D1*
X4371D2*
X4602D1*
X4919D2*
X5729D1*
X196Y3160D2*
X269D1*
X731D2*
X861D1*
X1178D2*
X1269D1*
X1869D2*
X2262D1*
X2601D2*
X2702D1*
X2958D2*
X3200D1*
X3679D2*
X4096D1*
X4425D2*
X4602D1*
X4919D2*
X5904D1*
X196Y3102D2*
X409D1*
X591D2*
X861D1*
X1178D2*
X1409D1*
X1923D2*
X2263D1*
X2659D2*
X2701D1*
X2958D2*
X3177D1*
X3704D2*
X4074D1*
X4445D2*
X4602D1*
X4919D2*
X5904D1*
X196Y3043D2*
X822D1*
X1178D2*
X1575D1*
X1945D2*
X2283D1*
X2958D2*
X3167D1*
X3713D2*
X4074D1*
X4446D2*
X4602D1*
X4919D2*
X5904D1*
X196Y2984D2*
X763D1*
X1174D2*
X1574D1*
X1947D2*
X2334D1*
X2958D2*
X3170D1*
X3709D2*
X4093D1*
X4426D2*
X4602D1*
X4919D2*
X5904D1*
X196Y2926D2*
X704D1*
X1145D2*
X1593D1*
X1927D2*
X2393D1*
X2958D2*
X3188D1*
X3692D2*
X4143D1*
X4377D2*
X4602D1*
X4919D2*
X5904D1*
X196Y2867D2*
X318D1*
X1088D2*
X1317D1*
X1879D2*
X2451D1*
X2958D2*
X3222D1*
X3658D2*
X4602D1*
X4919D2*
X5904D1*
X196Y2808D2*
X228D1*
X1030D2*
X1228D1*
X1772D2*
X2481D1*
X2958D2*
X3285D1*
X3595D2*
X4098D1*
X4322D2*
X4602D1*
X4919D2*
X5904D1*
X971Y2750D2*
X1173D1*
X1828D2*
X2528D1*
X2958D2*
X3370D1*
X3510D2*
X4045D1*
X4375D2*
X4602D1*
X4919D2*
X5904D1*
X912Y2691D2*
X1134D1*
X1866D2*
X2488D1*
X2958D2*
X3258D1*
X3622D2*
X4024D1*
X4396D2*
X4602D1*
X4919D2*
X5904D1*
X891Y2632D2*
X1109D1*
X1891D2*
X2452D1*
X2958D2*
X3208D1*
X3673D2*
X4024D1*
X4396D2*
X4602D1*
X4919D2*
X5904D1*
X906Y2573D2*
X1094D1*
X1906D2*
X2442D1*
X2958D2*
X3180D1*
X3700D2*
X4043D1*
X4377D2*
X4602D1*
X4919D2*
X5904D1*
X913Y2515D2*
X1087D1*
X1913D2*
X2450D1*
X2958D2*
X3168D1*
X3712D2*
X4094D1*
X4414D2*
X4602D1*
X4919D2*
X5904D1*
X911Y2456D2*
X1089D1*
X1911D2*
X2481D1*
X2958D2*
X3169D1*
X3711D2*
X4175D1*
X4485D2*
X4602D1*
X4919D2*
X5904D1*
X901Y2397D2*
X1099D1*
X1900D2*
X2502D1*
X2958D2*
X3184D1*
X3697D2*
X4148D1*
X4512D2*
X4602D1*
X4919D2*
X5904D1*
X880Y2339D2*
X1120D1*
X1880D2*
X2502D1*
X2958D2*
X3214D1*
X3666D2*
X4142D1*
X4518D2*
X4602D1*
X4919D2*
X5904D1*
X849Y2280D2*
X1151D1*
X1848D2*
X2502D1*
X2958D2*
X3269D1*
X3612D2*
X4156D1*
X4504D2*
X4602D1*
X4919D2*
X5904D1*
X803Y2221D2*
X1197D1*
X1803D2*
X2502D1*
X2958D2*
X4162D1*
X4477D2*
X4602D1*
X4919D2*
X5904D1*
X196Y2163D2*
X266D1*
X735D2*
X1265D1*
X1734D2*
X2502D1*
X2958D2*
X4137D1*
X4503D2*
X4602D1*
X4919D2*
X4954D1*
X5165D2*
X5904D1*
X196Y2104D2*
X399D1*
X601D2*
X1399D1*
X1601D2*
X2502D1*
X2958D2*
X4132D1*
X4508D2*
X4602D1*
X5222D2*
X5904D1*
X196Y2045D2*
X2480D1*
X2958D2*
X4147D1*
X4492D2*
X4602D1*
X5245D2*
X5904D1*
X196Y1987D2*
X2472D1*
X2958D2*
X4179D1*
X4501D2*
X4602D1*
X5247D2*
X5904D1*
X196Y1928D2*
X2482D1*
X2958D2*
X4156D1*
X4524D2*
X4602D1*
X5229D2*
X5904D1*
X196Y1869D2*
X322D1*
X677D2*
X1323D1*
X1678D2*
X2518D1*
X2958D2*
X4153D1*
X4527D2*
X4602D1*
X4919D2*
X4938D1*
X5182D2*
X5904D1*
X196Y1811D2*
X230D1*
X769D2*
X1231D1*
X1770D2*
X2532D1*
X2958D2*
X4170D1*
X4510D2*
X4602D1*
X4919D2*
X5904D1*
X826Y1752D2*
X1174D1*
X1826D2*
X2532D1*
X2958D2*
X4215D1*
X4465D2*
X4602D1*
X4919D2*
X5904D1*
X865Y1693D2*
X1135D1*
X1864D2*
X2349D1*
X2958D2*
X4602D1*
X4919D2*
X5904D1*
X890Y1634D2*
X1110D1*
X1891D2*
X2308D1*
X2958D2*
X4602D1*
X4919D2*
X5904D1*
X906Y1576D2*
X1094D1*
X1906D2*
X2292D1*
X2983D2*
X4602D1*
X4919D2*
X5904D1*
X913Y1517D2*
X1087D1*
X1913D2*
X2297D1*
X3042D2*
X4602D1*
X4919D2*
X5904D1*
X911Y1458D2*
X1089D1*
X1911D2*
X2323D1*
X3101D2*
X4602D1*
X4919D2*
X5904D1*
X901Y1400D2*
X1099D1*
X1901D2*
X2388D1*
X2573D2*
X2631D1*
X3159D2*
X4602D1*
X4919D2*
X5904D1*
X881Y1341D2*
X1119D1*
X1881D2*
X2468D1*
X2652D2*
X2690D1*
X3218D2*
X4602D1*
X4919D2*
X5629D1*
X5871D2*
X5905D1*
X850Y1282D2*
X1150D1*
X1850D2*
X2404D1*
X2716D2*
X2748D1*
X3276D2*
X4602D1*
X4919D2*
X5582D1*
X805Y1224D2*
X1195D1*
X1805D2*
X2377D1*
X2743D2*
X2808D1*
X3335D2*
X4602D1*
X4919D2*
X5563D1*
X196Y1165D2*
X262D1*
X737D2*
X1263D1*
X1738D2*
X2373D1*
X2747D2*
X2866D1*
X3394D2*
X3452D1*
X3729D2*
X4602D1*
X4919D2*
X5565D1*
X196Y1106D2*
X390D1*
X610D2*
X1390D1*
X1610D2*
X2388D1*
X2732D2*
X2925D1*
X3766D2*
X4602D1*
X4919D2*
X5587D1*
X196Y1048D2*
X2429D1*
X2691D2*
X2984D1*
X3778D2*
X4602D1*
X4919D2*
X5644D1*
X5856D2*
X5904D1*
X196Y989D2*
X2635D1*
X2785D2*
X3042D1*
X3771D2*
X4602D1*
X4919D2*
X5904D1*
X196Y930D2*
X2559D1*
X2861D2*
X3101D1*
X3741D2*
X4602D1*
X4919D2*
X5507D1*
X5573D2*
X5904D1*
X196Y872D2*
X327D1*
X673D2*
X1327D1*
X1673D2*
X2529D1*
X2891D2*
X3102D1*
X3688D2*
X4602D1*
X4919D2*
X5038D1*
X5082D2*
X5398D1*
X5682D2*
X5904D1*
X196Y813D2*
X233D1*
X766D2*
X1234D1*
X1767D2*
X2522D1*
X2898D2*
X3102D1*
X3359D2*
X3389D1*
X3746D2*
X4602D1*
X5201D2*
X5363D1*
X5717D2*
X5904D1*
X825Y754D2*
X1175D1*
X1824D2*
X2534D1*
X2886D2*
X3102D1*
X3359D2*
X3447D1*
X3805D2*
X4602D1*
X5236D2*
X5352D1*
X5729D2*
X5904D1*
X863Y695D2*
X1137D1*
X1863D2*
X2571D1*
X2849D2*
X3102D1*
X3359D2*
X3506D1*
X3863D2*
X4602D1*
X5248D2*
X5360D1*
X5720D2*
X5904D1*
X889Y637D2*
X1111D1*
X1890D2*
X3102D1*
X3359D2*
X3564D1*
X3915D2*
X4595D1*
X5240D2*
X5391D1*
X5689D2*
X5904D1*
X905Y578D2*
X1095D1*
X1906D2*
X2585D1*
X2674D2*
X3102D1*
X3359D2*
X3623D1*
X3929D2*
X4536D1*
X5210D2*
X5473D1*
X5607D2*
X5904D1*
X913Y519D2*
X1087D1*
X1913D2*
X2486D1*
X2774D2*
X3102D1*
X3359D2*
X3672D1*
X3929D2*
X4478D1*
X4906D2*
X4990D1*
X5131D2*
X5904D1*
X912Y461D2*
X1088D1*
X1911D2*
X2452D1*
X2807D2*
X3102D1*
X3359D2*
X3672D1*
X3929D2*
X4040D1*
X4099D2*
X4419D1*
X4862D2*
X5904D1*
X901Y402D2*
X1099D1*
X1901D2*
X2442D1*
X2819D2*
X3098D1*
X3361D2*
X3650D1*
X4803D2*
X5904D1*
X882Y343D2*
X1118D1*
X1882D2*
X2450D1*
X2809D2*
X3057D1*
X3403D2*
X3619D1*
X4744D2*
X5904D1*
X852Y285D2*
X1148D1*
X1852D2*
X2483D1*
X2777D2*
X3042D1*
X3418D2*
X3612D1*
X4686D2*
X5904D1*
X807Y226D2*
X1193D1*
X1807D2*
X2569D1*
X2690D2*
X3048D1*
X3413D2*
X3623D1*
X4627D2*
X5904D1*
X2507Y2435D2*
X2488Y2456D1*
X2471Y2481D1*
X2458Y2508D1*
X2451Y2537D1*
X2448Y2567D1*
X2450Y2597D1*
X2456Y2626D1*
X2468Y2654D1*
X2484Y2679D1*
X2504Y2702D1*
X2527Y2720D1*
X2554Y2736D1*
X2528Y2754D1*
X2508Y2776D1*
X2491Y2801D1*
X2478Y2828D1*
X2472Y2853D1*
X2312Y3012D1*
X2293Y3035D1*
X2279Y3062D1*
X2270Y3090D1*
X2268Y3120D1*
Y4880D1*
X2271Y4910D1*
X2279Y4938D1*
X2293Y4965D1*
X2312Y4988D1*
X2351Y5027D1*
X2357Y5047D1*
X2100Y5048D1*
X1970D1*
X1858Y4935D1*
X1837Y4913D1*
X1813Y4895D1*
X1786Y4883D1*
X1750Y4878D1*
X1652D1*
X1701Y4854D1*
X1751Y4821D1*
X1795Y4781D1*
X1833Y4734D1*
X1857Y4695D1*
X1877Y4710D1*
X1903Y4725D1*
X1931Y4736D1*
X1960Y4741D1*
X1990Y4742D1*
X2020Y4738D1*
X2049Y4729D1*
X2075Y4715D1*
X2100Y4698D1*
X2121Y4676D1*
X2138Y4652D1*
X2151Y4625D1*
X2159Y4596D1*
X2162Y4560D1*
X2160Y4530D1*
X2153Y4501D1*
X2141Y4474D1*
X2132Y4460D1*
Y4290D1*
X2129Y4260D1*
X2121Y4232D1*
X2107Y4205D1*
X2088Y4182D1*
X1808Y3902D1*
X1785Y3883D1*
X1758Y3869D1*
X1730Y3860D1*
X1696Y3857D1*
X1737Y3832D1*
X1774Y3802D1*
X1807Y3767D1*
X1837Y3729D1*
X1861Y3688D1*
X1881Y3644D1*
X1895Y3599D1*
X1904Y3551D1*
X1907Y3500D1*
X1905Y3452D1*
X1896Y3405D1*
X1882Y3359D1*
X1863Y3315D1*
X1839Y3274D1*
X1810Y3235D1*
X1776Y3201D1*
X1767Y3192D1*
X1800Y3188D1*
X1829Y3179D1*
X1855Y3165D1*
X1880Y3148D1*
X1901Y3126D1*
X1918Y3102D1*
X1931Y3075D1*
X1939Y3046D1*
X1942Y3010D1*
X1940Y2980D1*
X1933Y2951D1*
X1921Y2924D1*
X1904Y2898D1*
X1884Y2876D1*
X1861Y2858D1*
X1834Y2843D1*
X1806Y2834D1*
X1776Y2828D1*
X1740Y2829D1*
X1774Y2802D1*
X1815Y2758D1*
X1850Y2709D1*
X1877Y2655D1*
X1895Y2599D1*
X1905Y2539D1*
X1907Y2500D1*
X1903Y2440D1*
X1890Y2382D1*
X1868Y2326D1*
X1839Y2274D1*
X1802Y2226D1*
X1758Y2185D1*
X1709Y2151D1*
X1656Y2124D1*
X1599Y2105D1*
X1540Y2095D1*
X1480Y2093D1*
X1420Y2100D1*
X1363Y2116D1*
X1308Y2141D1*
X1257Y2173D1*
X1212Y2212D1*
X1173Y2257D1*
X1141Y2308D1*
X1116Y2363D1*
X1100Y2421D1*
X1093Y2480D1*
X1095Y2540D1*
X1105Y2599D1*
X1124Y2656D1*
X1151Y2710D1*
X1185Y2759D1*
X1227Y2802D1*
X1274Y2839D1*
X1326Y2868D1*
X1382Y2890D1*
X1441Y2903D1*
X1500Y2907D1*
X1560Y2903D1*
X1619Y2890D1*
X1625Y2888D1*
X1601Y2921D1*
X1588Y2948D1*
X1581Y2977D1*
X1578Y3007D1*
X1580Y3037D1*
X1586Y3066D1*
X1598Y3094D1*
X1605Y3106D1*
X1558Y3097D1*
X1510Y3093D1*
X1462Y3094D1*
X1415Y3102D1*
X1368Y3115D1*
X1324Y3133D1*
X1282Y3156D1*
X1243Y3184D1*
X1208Y3216D1*
X1176Y3253D1*
X1172Y3258D1*
Y3020D1*
X1169Y2990D1*
X1161Y2962D1*
X1147Y2935D1*
X1128Y2912D1*
X875Y2660D1*
X895Y2599D1*
X905Y2539D1*
X907Y2500D1*
X903Y2440D1*
X890Y2382D1*
X868Y2326D1*
X839Y2274D1*
X802Y2226D1*
X758Y2185D1*
X709Y2151D1*
X656Y2124D1*
X599Y2105D1*
X540Y2095D1*
X480Y2093D1*
X420Y2100D1*
X363Y2116D1*
X308Y2141D1*
X257Y2173D1*
X212Y2212D1*
X190Y2236D1*
Y1764D1*
X227Y1802D1*
X274Y1839D1*
X326Y1868D1*
X382Y1890D1*
X441Y1903D1*
X500Y1907D1*
X560Y1903D1*
X619Y1890D1*
X675Y1868D1*
X727Y1838D1*
X774Y1802D1*
X815Y1758D1*
X850Y1709D1*
X877Y1655D1*
X895Y1599D1*
X905Y1539D1*
X907Y1500D1*
X903Y1440D1*
X890Y1382D1*
X868Y1326D1*
X839Y1274D1*
X802Y1226D1*
X758Y1185D1*
X709Y1151D1*
X656Y1124D1*
X599Y1105D1*
X540Y1095D1*
X480Y1093D1*
X420Y1100D1*
X363Y1116D1*
X308Y1141D1*
X257Y1173D1*
X212Y1212D1*
X190Y1236D1*
Y765D1*
X227Y802D1*
X274Y839D1*
X326Y868D1*
X382Y890D1*
X441Y903D1*
X500Y907D1*
X560Y903D1*
X619Y890D1*
X675Y868D1*
X727Y838D1*
X774Y802D1*
X815Y758D1*
X850Y709D1*
X877Y655D1*
X895Y599D1*
X905Y539D1*
X907Y500D1*
X903Y440D1*
X890Y382D1*
X868Y326D1*
X839Y274D1*
X802Y226D1*
X763Y189D1*
X1235Y190D1*
X1191Y234D1*
X1156Y282D1*
X1128Y335D1*
X1107Y392D1*
X1096Y450D1*
X1093Y510D1*
X1099Y570D1*
X1113Y628D1*
X1136Y683D1*
X1167Y735D1*
X1205Y781D1*
X1250Y821D1*
X1299Y855D1*
X1354Y880D1*
X1411Y898D1*
X1470Y906D1*
X1530D1*
X1590Y897D1*
X1647Y880D1*
X1701Y854D1*
X1751Y821D1*
X1795Y781D1*
X1833Y734D1*
X1864Y683D1*
X1887Y627D1*
X1901Y569D1*
X1907Y510D1*
X1906Y470D1*
X1897Y411D1*
X1880Y353D1*
X1854Y299D1*
X1821Y249D1*
X1781Y205D1*
X1763Y189D1*
X2140Y190D1*
X3065D1*
X3051Y237D1*
X3048Y267D1*
X3050Y297D1*
X3056Y326D1*
X3068Y354D1*
X3084Y379D1*
X3107Y405D1*
X3108Y929D1*
X2607Y1430D1*
X2581Y1408D1*
X2554Y1393D1*
X2526Y1384D1*
X2496Y1378D1*
X2467D1*
X2437Y1383D1*
X2408Y1392D1*
X2382Y1406D1*
X2358Y1424D1*
X2338Y1446D1*
X2321Y1471D1*
X2308Y1498D1*
X2301Y1527D1*
X2298Y1557D1*
X2300Y1587D1*
X2306Y1616D1*
X2318Y1644D1*
X2334Y1669D1*
X2354Y1692D1*
X2377Y1710D1*
X2403Y1725D1*
X2431Y1736D1*
X2460Y1741D1*
X2490Y1742D1*
X2520Y1738D1*
X2537Y1733D1*
X2538Y1855D1*
X2518Y1876D1*
X2501Y1901D1*
X2488Y1928D1*
X2481Y1957D1*
X2478Y1987D1*
X2480Y2017D1*
X2486Y2046D1*
X2498Y2074D1*
X2507Y2089D1*
X2508Y2435D1*
X2740Y1150D2*
X2733Y1121D1*
X2721Y1094D1*
X2704Y1068D1*
X2684Y1046D1*
X2661Y1028D1*
X2634Y1013D1*
X2606Y1004D1*
X2576Y998D1*
X2547D1*
X2517Y1003D1*
X2488Y1012D1*
X2462Y1026D1*
X2438Y1044D1*
X2418Y1066D1*
X2401Y1091D1*
X2388Y1118D1*
X2381Y1147D1*
X2378Y1177D1*
X2380Y1207D1*
X2386Y1236D1*
X2398Y1264D1*
X2414Y1289D1*
X2434Y1312D1*
X2457Y1330D1*
X2483Y1345D1*
X2511Y1356D1*
X2540Y1361D1*
X2570Y1362D1*
X2600Y1358D1*
X2629Y1349D1*
X2655Y1335D1*
X2680Y1318D1*
X2701Y1296D1*
X2718Y1272D1*
X2731Y1245D1*
X2739Y1216D1*
X2742Y1180D1*
X2740Y1150D1*
X4520Y1860D2*
X4513Y1831D1*
X4501Y1804D1*
X4484Y1778D1*
X4464Y1756D1*
X4441Y1738D1*
X4414Y1723D1*
X4386Y1714D1*
X4356Y1708D1*
X4327D1*
X4297Y1713D1*
X4268Y1722D1*
X4242Y1736D1*
X4218Y1754D1*
X4198Y1776D1*
X4181Y1801D1*
X4168Y1828D1*
X4161Y1857D1*
X4158Y1887D1*
X4160Y1917D1*
X4166Y1946D1*
X4178Y1974D1*
X4189Y1992D1*
X4161Y2031D1*
X4148Y2058D1*
X4141Y2087D1*
X4138Y2117D1*
X4140Y2147D1*
X4146Y2176D1*
X4158Y2204D1*
X4174Y2229D1*
X4184Y2241D1*
X4171Y2261D1*
X4158Y2288D1*
X4151Y2317D1*
X4148Y2347D1*
X4150Y2377D1*
X4156Y2406D1*
X4168Y2434D1*
X4184Y2459D1*
X4201Y2478D1*
X4167Y2483D1*
X4138Y2492D1*
X4112Y2506D1*
X4088Y2524D1*
X4068Y2546D1*
X4051Y2571D1*
X4038Y2598D1*
X4031Y2627D1*
X4028Y2657D1*
X4030Y2687D1*
X4036Y2716D1*
X4048Y2744D1*
X4064Y2769D1*
X4084Y2792D1*
X4107Y2810D1*
X4133Y2825D1*
X4161Y2836D1*
X4190Y2841D1*
X4220Y2842D1*
X4250Y2838D1*
X4279Y2829D1*
X4305Y2815D1*
X4330Y2798D1*
X4351Y2776D1*
X4368Y2752D1*
X4381Y2725D1*
X4389Y2696D1*
X4392Y2660D1*
X4390Y2630D1*
X4383Y2601D1*
X4371Y2574D1*
X4354Y2548D1*
X4340Y2532D1*
X4370Y2528D1*
X4399Y2519D1*
X4425Y2505D1*
X4450Y2488D1*
X4471Y2466D1*
X4488Y2442D1*
X4501Y2415D1*
X4509Y2386D1*
X4512Y2350D1*
X4510Y2320D1*
X4503Y2291D1*
X4491Y2264D1*
X4466Y2229D1*
X4478Y2212D1*
X4491Y2185D1*
X4499Y2156D1*
X4502Y2120D1*
X4500Y2090D1*
X4493Y2061D1*
X4481Y2034D1*
X4470Y2017D1*
X4481Y2006D1*
X4498Y1982D1*
X4511Y1955D1*
X4519Y1926D1*
X4522Y1890D1*
X4520Y1860D1*
X4440Y3040D2*
X4433Y3011D1*
X4421Y2984D1*
X4404Y2958D1*
X4384Y2936D1*
X4361Y2918D1*
X4334Y2903D1*
X4306Y2894D1*
X4276Y2888D1*
X4247D1*
X4217Y2893D1*
X4188Y2902D1*
X4162Y2916D1*
X4138Y2934D1*
X4118Y2956D1*
X4101Y2981D1*
X4088Y3008D1*
X4081Y3037D1*
X4078Y3067D1*
X4080Y3097D1*
X4086Y3126D1*
X4098Y3154D1*
X4114Y3179D1*
X4134Y3202D1*
X4157Y3220D1*
X4183Y3235D1*
X4211Y3246D1*
X4240Y3251D1*
X4270Y3252D1*
X4300Y3248D1*
X4329Y3239D1*
X4355Y3225D1*
X4380Y3208D1*
X4401Y3186D1*
X4418Y3162D1*
X4431Y3135D1*
X4439Y3106D1*
X4442Y3070D1*
X4440Y3040D1*
X3600Y5040D2*
X3593Y5011D1*
X3581Y4984D1*
X3564Y4958D1*
X3544Y4936D1*
X3521Y4918D1*
X3494Y4903D1*
X3466Y4894D1*
X3436Y4888D1*
X3407D1*
X3377Y4893D1*
X3348Y4902D1*
X3322Y4916D1*
X3298Y4934D1*
X3278Y4956D1*
X3261Y4981D1*
X3248Y5008D1*
X3241Y5037D1*
X3238Y5067D1*
X3240Y5097D1*
X3246Y5126D1*
X3258Y5154D1*
X3274Y5179D1*
X3294Y5202D1*
X3317Y5220D1*
X3343Y5235D1*
X3371Y5246D1*
X3400Y5251D1*
X3430Y5252D1*
X3460Y5248D1*
X3489Y5239D1*
X3515Y5225D1*
X3540Y5208D1*
X3561Y5186D1*
X3578Y5162D1*
X3591Y5135D1*
X3599Y5106D1*
X3602Y5070D1*
X3600Y5040D1*
X5460Y3920D2*
X5453Y3891D1*
X5441Y3864D1*
X5424Y3838D1*
X5404Y3816D1*
X5381Y3798D1*
X5354Y3783D1*
X5326Y3774D1*
X5296Y3768D1*
X5267D1*
X5237Y3773D1*
X5208Y3782D1*
X5182Y3796D1*
X5158Y3814D1*
X5138Y3836D1*
X5121Y3861D1*
X5108Y3888D1*
X5101Y3917D1*
X5098Y3947D1*
X5100Y3977D1*
X5106Y4006D1*
X5118Y4034D1*
X5134Y4059D1*
X5154Y4082D1*
X5177Y4100D1*
X5203Y4115D1*
X5231Y4126D1*
X5260Y4131D1*
X5290Y4132D1*
X5320Y4128D1*
X5349Y4119D1*
X5375Y4105D1*
X5400Y4088D1*
X5421Y4066D1*
X5438Y4042D1*
X5451Y4015D1*
X5459Y3986D1*
X5462Y3950D1*
X5460Y3920D1*
X3939Y407D2*
X3967Y430D1*
X3993Y445D1*
X4021Y456D1*
X4050Y461D1*
X4080Y462D1*
X4110Y458D1*
X4139Y449D1*
X4169Y433D1*
X4397Y432D1*
X4607Y643D1*
X4608Y4270D1*
X4611Y4300D1*
X4619Y4328D1*
X4633Y4355D1*
X4652Y4378D1*
X4802Y4528D1*
X4825Y4547D1*
X4852Y4561D1*
X4880Y4570D1*
X4910Y4572D1*
X4941D1*
X4963Y4585D1*
X4991Y4596D1*
X5020Y4601D1*
X5050Y4602D1*
X5080Y4598D1*
X5109Y4589D1*
X5135Y4575D1*
X5160Y4558D1*
X5181Y4536D1*
X5198Y4512D1*
X5211Y4485D1*
X5219Y4456D1*
X5222Y4420D1*
X5220Y4390D1*
X5213Y4361D1*
X5201Y4334D1*
X5184Y4308D1*
X5164Y4286D1*
X5141Y4268D1*
X5114Y4253D1*
X5086Y4244D1*
X5056Y4238D1*
X5027D1*
X4997Y4243D1*
X4961Y4256D1*
X4912Y4207D1*
Y2117D1*
X4934Y2142D1*
X4957Y2160D1*
X4983Y2175D1*
X5011Y2186D1*
X5040Y2191D1*
X5070Y2192D1*
X5100Y2188D1*
X5129Y2179D1*
X5155Y2165D1*
X5180Y2148D1*
X5201Y2126D1*
X5218Y2102D1*
X5231Y2075D1*
X5239Y2046D1*
X5242Y2010D1*
X5240Y1980D1*
X5233Y1951D1*
X5221Y1924D1*
X5204Y1898D1*
X5184Y1876D1*
X5161Y1858D1*
X5134Y1843D1*
X5106Y1834D1*
X5076Y1828D1*
X5047D1*
X5017Y1833D1*
X4988Y1842D1*
X4962Y1856D1*
X4938Y1874D1*
X4912Y1905D1*
Y1690D1*
X4914Y799D1*
X4934Y822D1*
X4957Y840D1*
X4983Y855D1*
X5011Y866D1*
X5040Y871D1*
X5070Y872D1*
X5100Y868D1*
X5129Y859D1*
X5155Y845D1*
X5180Y828D1*
X5201Y806D1*
X5218Y782D1*
X5231Y755D1*
X5239Y726D1*
X5242Y690D1*
X5240Y660D1*
X5233Y631D1*
X5221Y604D1*
X5204Y578D1*
X5184Y556D1*
X5161Y538D1*
X5134Y523D1*
X5106Y514D1*
X5076Y508D1*
X5047D1*
X5017Y513D1*
X4988Y522D1*
X4962Y536D1*
X4938Y554D1*
X4912Y585D1*
X4909Y550D1*
X4901Y522D1*
X4887Y495D1*
X4868Y472D1*
X4586Y190D1*
X5170D1*
X5910D1*
Y1113D1*
X5894Y1088D1*
X5874Y1066D1*
X5851Y1048D1*
X5824Y1033D1*
X5796Y1024D1*
X5766Y1018D1*
X5737D1*
X5707Y1023D1*
X5678Y1032D1*
X5652Y1046D1*
X5628Y1064D1*
X5608Y1086D1*
X5591Y1111D1*
X5578Y1138D1*
X5571Y1167D1*
X5568Y1197D1*
X5570Y1227D1*
X5576Y1256D1*
X5588Y1284D1*
X5604Y1309D1*
X5624Y1332D1*
X5647Y1350D1*
X5673Y1365D1*
X5701Y1376D1*
X5730Y1381D1*
X5760Y1382D1*
X5790Y1378D1*
X5819Y1369D1*
X5845Y1355D1*
X5870Y1338D1*
X5891Y1316D1*
X5911Y1286D1*
X5910Y1840D1*
Y3187D1*
X5866Y3178D1*
X5837D1*
X5807Y3183D1*
X5778Y3192D1*
X5752Y3206D1*
X5728Y3224D1*
X5708Y3246D1*
X5691Y3271D1*
X5678Y3298D1*
X5671Y3327D1*
X5668Y3357D1*
X5670Y3387D1*
X5676Y3416D1*
X5688Y3444D1*
X5704Y3469D1*
X5724Y3492D1*
X5738Y3504D1*
X5718Y3526D1*
X5701Y3551D1*
X5688Y3578D1*
X5681Y3607D1*
X5678Y3637D1*
X5680Y3667D1*
X5686Y3696D1*
X5698Y3724D1*
X5714Y3749D1*
X5737Y3775D1*
X5738Y4340D1*
X5625Y4452D1*
X4699Y5378D1*
X3910D1*
X1888D1*
X1868Y5326D1*
X1839Y5274D1*
X1802Y5226D1*
X1758Y5185D1*
X1709Y5151D1*
X1656Y5124D1*
X1651Y5122D1*
X1700D1*
X1833Y5257D1*
X1857Y5275D1*
X1884Y5287D1*
X1920Y5292D1*
X2670D1*
X2700Y5289D1*
X2728Y5278D1*
X2757Y5257D1*
X2917Y5097D1*
X2935Y5073D1*
X2947Y5046D1*
X2952Y5010D1*
Y1600D1*
X3429Y1124D1*
X3444Y1149D1*
X3464Y1172D1*
X3487Y1190D1*
X3513Y1205D1*
X3541Y1216D1*
X3570Y1221D1*
X3600Y1222D1*
X3630Y1218D1*
X3659Y1209D1*
X3685Y1195D1*
X3710Y1178D1*
X3731Y1156D1*
X3748Y1132D1*
X3761Y1105D1*
X3769Y1076D1*
X3772Y1040D1*
X3770Y1010D1*
X3763Y981D1*
X3751Y954D1*
X3734Y928D1*
X3714Y906D1*
X3691Y888D1*
X3673Y878D1*
X3723Y830D1*
X3887Y667D1*
X3905Y643D1*
X3917Y616D1*
X3922Y580D1*
Y425D1*
X3706Y2460D2*
X3701Y2430D1*
X3692Y2402D1*
X3681Y2374D1*
X3666Y2348D1*
X3649Y2323D1*
X3629Y2301D1*
X3607Y2281D1*
X3582Y2264D1*
X3556Y2249D1*
X3528Y2238D1*
X3500Y2229D1*
X3470Y2224D1*
X3440Y2223D1*
X3410Y2224D1*
X3381Y2229D1*
X3352Y2238D1*
X3324Y2249D1*
X3298Y2264D1*
X3273Y2281D1*
X3251Y2301D1*
X3231Y2323D1*
X3214Y2348D1*
X3199Y2374D1*
X3188Y2402D1*
X3179Y2430D1*
X3174Y2460D1*
X3173Y2490D1*
X3174Y2520D1*
X3179Y2549D1*
X3188Y2578D1*
X3199Y2606D1*
X3214Y2632D1*
X3231Y2657D1*
X3251Y2679D1*
X3273Y2699D1*
X3298Y2716D1*
X3324Y2731D1*
X3352Y2742D1*
X3380Y2751D1*
X3410Y2756D1*
X3440Y2757D1*
X3470Y2756D1*
X3499Y2751D1*
X3528Y2742D1*
X3556Y2731D1*
X3582Y2716D1*
X3607Y2699D1*
X3629Y2679D1*
X3649Y2657D1*
X3666Y2632D1*
X3681Y2606D1*
X3692Y2578D1*
X3701Y2550D1*
X3706Y2520D1*
X3707Y2490D1*
X3706Y2460D1*
Y3520D2*
X3701Y3490D1*
X3692Y3462D1*
X3681Y3434D1*
X3666Y3408D1*
X3649Y3383D1*
X3629Y3361D1*
X3607Y3341D1*
X3582Y3324D1*
X3556Y3309D1*
X3528Y3298D1*
X3502Y3290D1*
X3528Y3282D1*
X3556Y3271D1*
X3582Y3256D1*
X3607Y3239D1*
X3629Y3219D1*
X3649Y3197D1*
X3666Y3172D1*
X3681Y3146D1*
X3692Y3118D1*
X3701Y3090D1*
X3706Y3060D1*
X3707Y3030D1*
X3706Y3000D1*
X3701Y2970D1*
X3692Y2942D1*
X3681Y2914D1*
X3666Y2888D1*
X3649Y2863D1*
X3629Y2841D1*
X3607Y2821D1*
X3582Y2804D1*
X3556Y2789D1*
X3528Y2778D1*
X3500Y2769D1*
X3470Y2764D1*
X3440Y2763D1*
X3410Y2764D1*
X3381Y2769D1*
X3352Y2778D1*
X3324Y2789D1*
X3298Y2804D1*
X3273Y2821D1*
X3251Y2841D1*
X3231Y2863D1*
X3214Y2888D1*
X3199Y2914D1*
X3188Y2942D1*
X3179Y2970D1*
X3174Y3000D1*
X3173Y3030D1*
X3174Y3060D1*
X3179Y3089D1*
X3188Y3118D1*
X3199Y3146D1*
X3214Y3172D1*
X3231Y3197D1*
X3251Y3219D1*
X3273Y3239D1*
X3298Y3256D1*
X3324Y3271D1*
X3352Y3282D1*
X3378Y3290D1*
X3324Y3309D1*
X3298Y3324D1*
X3273Y3341D1*
X3251Y3361D1*
X3231Y3383D1*
X3214Y3408D1*
X3199Y3434D1*
X3188Y3462D1*
X3179Y3490D1*
X3174Y3520D1*
X3173Y3550D1*
X3174Y3580D1*
X3179Y3609D1*
X3188Y3638D1*
X3199Y3666D1*
X3214Y3692D1*
X3231Y3717D1*
X3251Y3739D1*
X3273Y3759D1*
X3298Y3776D1*
X3324Y3791D1*
X3352Y3802D1*
X3380Y3811D1*
X3410Y3816D1*
X3440Y3817D1*
X3470Y3816D1*
X3499Y3811D1*
X3528Y3802D1*
X3556Y3791D1*
X3582Y3776D1*
X3607Y3759D1*
X3629Y3739D1*
X3649Y3717D1*
X3666Y3692D1*
X3681Y3666D1*
X3692Y3638D1*
X3701Y3610D1*
X3706Y3580D1*
X3707Y3550D1*
X3706Y3520D1*
X907Y5860D2*
Y5123D1*
X1347Y5122D1*
X1308Y5141D1*
X1257Y5173D1*
X1212Y5212D1*
X1173Y5257D1*
X1141Y5308D1*
X1116Y5363D1*
X1100Y5421D1*
X1093Y5480D1*
X1095Y5540D1*
X1105Y5599D1*
X1124Y5656D1*
X1151Y5710D1*
X1185Y5759D1*
X1227Y5802D1*
X1274Y5839D1*
X1310Y5860D1*
X907D1*
X790Y5093D2*
X190D1*
Y4764D1*
X227Y4802D1*
X274Y4839D1*
X326Y4868D1*
X382Y4890D1*
X441Y4903D1*
X500Y4907D1*
X560Y4903D1*
X594Y4896D1*
X682Y4985D1*
X784Y5087D1*
X1690Y5860D2*
X1727Y5838D1*
X1774Y5802D1*
X1815Y5758D1*
X1850Y5709D1*
X1877Y5655D1*
X1888Y5623D1*
X2370Y5622D1*
X4750D1*
X4780Y5619D1*
X4808Y5608D1*
X4837Y5587D1*
X5910Y4513D1*
Y5860D1*
X1690D1*
X906Y4470D2*
X897Y4411D1*
X880Y4353D1*
X854Y4299D1*
X821Y4249D1*
X781Y4205D1*
X735Y4167D1*
X683Y4136D1*
X628Y4113D1*
X570Y4099D1*
X510Y4093D1*
X450Y4096D1*
X391Y4107D1*
X335Y4128D1*
X282Y4156D1*
X234Y4192D1*
X190Y4236D1*
Y3765D1*
X227Y3802D1*
X264Y3832D1*
X305Y3858D1*
X348Y3878D1*
X394Y3893D1*
X441Y3903D1*
X488Y3907D1*
X536Y3906D1*
X584Y3899D1*
X630Y3886D1*
X675Y3868D1*
X717Y3845D1*
X756Y3817D1*
X791Y3785D1*
X823Y3749D1*
X850Y3709D1*
X868Y3675D1*
Y3710D1*
X871Y3740D1*
X879Y3768D1*
X893Y3795D1*
X912Y3818D1*
X1212Y4118D1*
X1235Y4137D1*
X1264Y4151D1*
X1257Y4173D1*
X1212Y4212D1*
X1173Y4257D1*
X1141Y4308D1*
X1116Y4363D1*
X1100Y4421D1*
X1093Y4480D1*
X1095Y4540D1*
X1105Y4599D1*
X1124Y4656D1*
X1151Y4710D1*
X1185Y4759D1*
X1227Y4802D1*
X1274Y4839D1*
X1326Y4868D1*
X1348Y4878D1*
X920D1*
X809Y4766D1*
X833Y4734D1*
X864Y4683D1*
X887Y4627D1*
X901Y4569D1*
X907Y4510D1*
X906Y4470D1*
X868Y3325D2*
X845Y3284D1*
X817Y3245D1*
X785Y3209D1*
X749Y3178D1*
X709Y3151D1*
X667Y3128D1*
X622Y3111D1*
X575Y3100D1*
X528Y3094D1*
X480Y3093D1*
X432Y3098D1*
X385Y3109D1*
X340Y3125D1*
X297Y3147D1*
X257Y3173D1*
X220Y3204D1*
X190Y3236D1*
Y2763D1*
X227Y2802D1*
X274Y2839D1*
X326Y2868D1*
X382Y2890D1*
X441Y2903D1*
X500Y2907D1*
X560Y2903D1*
X619Y2890D1*
X660Y2874D1*
X795Y3011D1*
X868Y3083D1*
Y3325D1*
X1906Y1470D2*
X1897Y1411D1*
X1880Y1353D1*
X1854Y1299D1*
X1821Y1249D1*
X1781Y1205D1*
X1735Y1167D1*
X1683Y1136D1*
X1628Y1113D1*
X1570Y1099D1*
X1510Y1093D1*
X1450Y1096D1*
X1391Y1107D1*
X1335Y1128D1*
X1282Y1156D1*
X1234Y1192D1*
X1191Y1234D1*
X1156Y1282D1*
X1128Y1335D1*
X1107Y1392D1*
X1096Y1450D1*
X1093Y1510D1*
X1099Y1570D1*
X1113Y1628D1*
X1136Y1683D1*
X1167Y1735D1*
X1205Y1781D1*
X1250Y1821D1*
X1299Y1855D1*
X1354Y1880D1*
X1411Y1898D1*
X1470Y1906D1*
X1530D1*
X1590Y1897D1*
X1647Y1880D1*
X1701Y1854D1*
X1751Y1821D1*
X1795Y1781D1*
X1833Y1734D1*
X1864Y1683D1*
X1887Y1627D1*
X1901Y1569D1*
X1907Y1510D1*
X1906Y1470D1*
X2708Y4211D2*
X2686Y4204D1*
X2656Y4198D1*
X2627D1*
X2597Y4203D1*
X2573Y4211D1*
X2572Y3868D1*
X2591Y3876D1*
X2620Y3881D1*
X2650Y3882D1*
X2680Y3878D1*
X2708Y3869D1*
Y4212D1*
X2573Y4549D2*
X2591Y4556D1*
X2620Y4561D1*
X2650Y4562D1*
X2680Y4558D1*
X2708Y4550D1*
Y4948D1*
X2691Y4904D1*
X2674Y4878D1*
X2654Y4856D1*
X2631Y4838D1*
X2604Y4823D1*
X2571Y4813D1*
X2572Y4670D1*
Y4549D1*
X3678Y426D2*
Y529D1*
X3352Y855D1*
Y405D1*
X3371Y386D1*
X3388Y362D1*
X3401Y335D1*
X3409Y306D1*
X3412Y270D1*
X3410Y240D1*
X3403Y211D1*
X3393Y190D1*
X3648D1*
X3641Y201D1*
X3628Y228D1*
X3621Y257D1*
X3618Y287D1*
X3620Y317D1*
X3626Y346D1*
X3638Y374D1*
X3654Y399D1*
X3677Y425D1*
X2708Y3062D2*
Y3531D1*
X2686Y3524D1*
X2656Y3518D1*
X2627D1*
X2597Y3523D1*
X2572Y3530D1*
Y3182D1*
X2688Y3068D1*
X2707Y3063D1*
X5720Y720D2*
X5713Y691D1*
X5701Y664D1*
X5684Y638D1*
X5664Y616D1*
X5641Y598D1*
X5614Y583D1*
X5586Y574D1*
X5556Y568D1*
X5527D1*
X5497Y573D1*
X5468Y582D1*
X5442Y596D1*
X5418Y614D1*
X5398Y636D1*
X5381Y661D1*
X5368Y688D1*
X5361Y717D1*
X5358Y747D1*
X5360Y777D1*
X5366Y806D1*
X5378Y834D1*
X5394Y859D1*
X5414Y882D1*
X5437Y900D1*
X5463Y915D1*
X5491Y926D1*
X5520Y931D1*
X5550Y932D1*
X5580Y928D1*
X5609Y919D1*
X5635Y905D1*
X5660Y888D1*
X5681Y866D1*
X5698Y842D1*
X5711Y815D1*
X5719Y786D1*
X5722Y750D1*
X5720Y720D1*
X2890Y790D2*
X2883Y761D1*
X2871Y734D1*
X2854Y708D1*
X2834Y686D1*
X2811Y668D1*
X2784Y653D1*
X2756Y644D1*
X2726Y638D1*
X2697D1*
X2667Y643D1*
X2638Y652D1*
X2612Y666D1*
X2588Y684D1*
X2568Y706D1*
X2551Y731D1*
X2538Y758D1*
X2531Y787D1*
X2528Y817D1*
X2530Y847D1*
X2536Y876D1*
X2548Y904D1*
X2564Y929D1*
X2584Y952D1*
X2607Y970D1*
X2633Y985D1*
X2661Y996D1*
X2690Y1001D1*
X2720Y1002D1*
X2750Y998D1*
X2779Y989D1*
X2805Y975D1*
X2830Y958D1*
X2851Y936D1*
X2868Y912D1*
X2881Y885D1*
X2889Y856D1*
X2892Y820D1*
X2890Y790D1*
X2810Y370D2*
X2803Y341D1*
X2791Y314D1*
X2774Y288D1*
X2754Y266D1*
X2731Y248D1*
X2704Y233D1*
X2676Y224D1*
X2646Y218D1*
X2617D1*
X2587Y223D1*
X2558Y232D1*
X2532Y246D1*
X2508Y264D1*
X2488Y286D1*
X2471Y311D1*
X2458Y338D1*
X2451Y367D1*
X2448Y397D1*
X2450Y427D1*
X2456Y456D1*
X2468Y484D1*
X2484Y509D1*
X2504Y532D1*
X2527Y550D1*
X2553Y565D1*
X2581Y576D1*
X2610Y581D1*
X2640Y582D1*
X2670Y578D1*
X2699Y569D1*
X2725Y555D1*
X2750Y538D1*
X2771Y516D1*
X2788Y492D1*
X2801Y465D1*
X2809Y436D1*
X2812Y400D1*
X2810Y370D1*
X4939Y4572D2*
X4963Y4585D1*
X4991Y4596D1*
X5020Y4601D1*
X5050Y4602D1*
X5080Y4598D1*
X5109Y4589D1*
X5135Y4575D1*
X5160Y4558D1*
X5181Y4536D1*
X5198Y4512D1*
X5211Y4485D1*
X5219Y4456D1*
X5222Y4420D1*
X5220Y4390D1*
X5213Y4361D1*
X5201Y4334D1*
X5184Y4308D1*
X5164Y4286D1*
X5141Y4268D1*
X5114Y4253D1*
X5086Y4244D1*
X5056Y4238D1*
X5027D1*
X4997Y4243D1*
X4961Y4256D1*
X4939Y4572D2*
X4963Y4585D1*
X4991Y4596D1*
X5020Y4601D1*
X5050Y4602D1*
X5080Y4598D1*
X5109Y4589D1*
X5135Y4575D1*
X5160Y4558D1*
X5181Y4536D1*
X5198Y4512D1*
X5211Y4485D1*
X5219Y4456D1*
X5222Y4420D1*
X5220Y4390D1*
X5213Y4361D1*
X5201Y4334D1*
X5184Y4308D1*
X5164Y4286D1*
X5141Y4268D1*
X5114Y4253D1*
X5086Y4244D1*
X5056Y4238D1*
X5027D1*
X4997Y4243D1*
X4961Y4256D1*
X4939Y4572D2*
X4963Y4585D1*
X4991Y4596D1*
X5020Y4601D1*
X5050Y4602D1*
X5080Y4598D1*
X5109Y4589D1*
X5135Y4575D1*
X5160Y4558D1*
X5181Y4536D1*
X5198Y4512D1*
X5211Y4485D1*
X5219Y4456D1*
X5222Y4420D1*
X5220Y4390D1*
X5213Y4361D1*
X5201Y4334D1*
X5184Y4308D1*
X5164Y4286D1*
X5141Y4268D1*
X5114Y4253D1*
X5086Y4244D1*
X5056Y4238D1*
X5027D1*
X4997Y4243D1*
X4961Y4256D1*
X500Y3907D2*
D19*
Y3093D1*
X1500Y3500D2*
Y3093D1*
Y3500D2*
X1907D1*
D28*
X500Y5500D3*
D36*
X1500D3*
X500Y4500D3*
X1500D3*
X500Y3500D3*
X1500D3*
X500Y2500D3*
X1500D3*
X500Y1500D3*
X1500D3*
X500Y500D3*
X1500D3*
M02*
